<svg id="圖層_1" data-name="圖層 1" xmlns="http://www.w3.org/2000/svg" viewBox="0 0 80.96 593.44"><title>20200212_常見問題</title><path d="M49.5,0H28.66c0,.43,0,13.75,0,20.88H7.81V41.77H28.66V20.9H49.47V41.77H70.32V20.88H49.5Z"/><path d="M80,538.11c.24.27.31.51.21.71a.92.92,0,0,1-.87.36H36.58l-3,.45c-.34.14-.52.09-.56-.15a14,14,0,0,1-.5-1.83c-.07-.24.11-.3.56-.2l3.5.35H53.15V521.28H39.43l-3,.46c-.34.14-.53.09-.56-.15a16.29,16.29,0,0,1-.51-1.83c-.07-.24.12-.31.56-.2l3.51.35H53.15v-8.59h-4l-3,.46c-.34.13-.53.08-.56-.16a15.18,15.18,0,0,1-.51-1.83c-.07-.23.12-.3.56-.2l3.51.36h8.59a1,1,0,0,0,.81-.41c.78-1.05,1.63-2.08,2.54-3.1a.59.59,0,0,1,.87-.05,14.25,14.25,0,0,1,4.17,3.86c.23.27.3.51.2.72a.94.94,0,0,1-.86.35H58.18v8.59h9.26a1,1,0,0,0,.86-.46q1.28-1.66,2.7-3.35a.67.67,0,0,1,1-.1,16.66,16.66,0,0,1,4.58,4.21c.23.28.3.51.2.71a.91.91,0,0,1-.86.36H58.18V537.8H70.54a1,1,0,0,0,.91-.45,36.42,36.42,0,0,1,2.75-3.51.72.72,0,0,1,1-.1A15.44,15.44,0,0,1,80,538.11Zm-37-5.44q.26-5.38-2.55-8.49a.42.42,0,0,1,0-.56q.15-.3.51-.15a.16.16,0,0,1,.1,0q6.4,3.15,7.37,8.49a4.46,4.46,0,0,1-.55,3,2.54,2.54,0,0,1-2.19,1.32h-.2C43.55,536.16,42.73,534.94,42.94,532.67Zm38-23.89c0,.23-.1.42-.41.56a6.44,6.44,0,0,0-2.59,2,5.47,5.47,0,0,0-1.07,2.59c-.1.31-.37.39-.81.25s-.87-.26-1.27-.4c-7.66-2.75-13.23-9.12-16.73-18.51a49.86,49.86,0,0,1-25.71,20c-.31.07-.48,0-.52-.2a.39.39,0,0,1,.26-.51,54.21,54.21,0,0,0,11.33-8.28c5.73-5.8,9.05-11,10-14.95,0-.17.17-.24.41-.21a39.28,39.28,0,0,1,5.28,1.83c.65.34.92.71.81,1.12s-.42.58-1,.61a28.55,28.55,0,0,0,3.86,5.14,28.84,28.84,0,0,0,17.64,8.79C80.76,508.57,80.92,508.64,81,508.78Zm-14.84,16.1c.21-1.1-.47-2-.39-2.63,0-.28.12-.42.76-.3a25.68,25.68,0,0,1,4.7,2.5c1,.68,2.17,1.82,2.06,2.21-.22.74-1.18.68-1.86.74a.94.94,0,0,0-.47.41c-.06.12-.13.23-.19.34l0,0h0a25.59,25.59,0,0,1-7.8,8.66c-.2.13-.35.15-.45,0a.36.36,0,0,1,0-.46,31.66,31.66,0,0,0,3.66-11.54Z"/><path d="M80.15,474.8a19.58,19.58,0,0,1-15.53-7,3.82,3.82,0,0,1-.34-.4H78.11A.92.92,0,0,0,79,467c.1-.2,0-.43-.21-.7a14.53,14.53,0,0,0-4.27-4,.66.66,0,0,0-.9.11A31.59,31.59,0,0,0,71,465.65a1.17,1.17,0,0,1-.84.39H67.06v-17h9.66a.89.89,0,0,0,.84-.35c.1-.2,0-.43-.2-.7a13.92,13.92,0,0,0-4.08-3.78.57.57,0,0,0-.84.05,38.53,38.53,0,0,0-2.49,3,1,1,0,0,1-.8.4H67.06V443.6c0-.29.14-.4.44-.58.52-.32.84-.44.84-.83s-.41-.74-1-1a53.16,53.16,0,0,0-5.25-1.62c-.23-.07-.34.11-.29.2l.5,1.63v6.33H49V443.4c-.05-.29.14-.4.44-.58.51-.32.84-.44.84-.84s-.41-.73-1-1c-1.44-.59-3.3-1.05-5.25-1.61-.23-.07-.35.11-.3.2l.5,1.64v6.52h-5.1l-3.44-.36q-.64-.15-.54.21a14.87,14.87,0,0,0,.49,1.78c0,.24.22.29.55.16l2.94-.45h5.1v17H37.46L34,465.7c-.43-.1-.61,0-.55.2a15.58,15.58,0,0,0,.5,1.79c0,.23.22.28.55.15l2.94-.45h6.76q-2.84,7.75-11.15,12.69c-.6.31-.86.58-.74.8s.22.24.55.14a28.64,28.64,0,0,0,9.5-4.57,23.57,23.57,0,0,0,7.37-9.06H63.18q4.08,8.36,8.21,11.29a.73.73,0,0,1,.25.15,19.29,19.29,0,0,0,4.48,2.05c.5.13.76,0,.79-.3a5.69,5.69,0,0,1,3.44-5,.56.56,0,0,0,.4-.6C80.71,474.87,80.51,474.8,80.15,474.8ZM49,455.25H62.27v4.82H49Zm13.32-6.17v4.82H49v-4.82ZM49,466v-4.62H62.27V466Zm28.21,20.38c.23.26.3.5.2.69s-.41.35-.84.35H38.85l-3,.25c-.26.1-.41.05-.44-.15-.14-.43-.27-.91-.4-1.44,0-.2.11-.25.44-.15l3.44.15H53.53v-7.19H48.2l-2.93.45c-.33.14-.52.09-.55-.15a13.36,13.36,0,0,1-.5-1.79c-.07-.23.12-.3.55-.2l3.43.35h5.35v-6.66l-.71-1.7c0-.1.07-.27.3-.2,1.93.56,4,1.09,5.42,1.68.61.25,1,.64,1,1s-.32.52-.83.83c-.3.18-.49.29-.44.58v4.49h2a.84.84,0,0,0,.8-.35c.77-1,1.56-2,2.39-2.93a.55.55,0,0,1,.84-.05,14.16,14.16,0,0,1,3.84,3.63c.23.27.3.5.2.7a.91.91,0,0,1-.85.34H58.3v7.19H68.61a1.2,1.2,0,0,0,.84-.4A32.45,32.45,0,0,1,72,482.54a.65.65,0,0,1,.89-.1A14.44,14.44,0,0,1,77.16,486.42Z"/><path d="M32.64,400.94a.3.3,0,0,1,0-.4,31.26,31.26,0,0,0,6.81-12.39,2.64,2.64,0,0,0,.2-.7c0-.2.1-.28.3-.25a24.69,24.69,0,0,1,4.58,1.69c.53.34.78.67.74,1s-.46.55-1.09.55a.87.87,0,0,0-.5.24A28.28,28.28,0,0,1,33,400.94C32.78,401,32.67,401,32.64,400.94Zm34.83-8.07c-.13-.56-.27-1.14-.4-1.73q0-.25.45-.21l3.58.35h1.34a.87.87,0,0,0,.75-.39,24.61,24.61,0,0,1,2-2.79c.27-.47.61-.53,1-.2a13.33,13.33,0,0,1,2.93,3.33,1,1,0,0,1,.25,1c-.1.26-.35.39-.74.39H71.1l-3.23.4C67.63,393.12,67.5,393.07,67.47,392.87Zm-.23,31.9a10.25,10.25,0,0,1-3.93.6,5.5,5.5,0,0,1-3.58-1.2,3.1,3.1,0,0,1-.8-2.29V406c0-.16,0-.25.15-.25a31.73,31.73,0,0,1,4,.4c.59.17.89.42.89.75s-.19.56-.59.69a.64.64,0,0,0-.35.7v12.64c0,.33.26.5.79.5l.95-.1c.53-.43,1.13-2.49,1.26-4.48,0-.19,0-.35.19-.35s.17.12.18.35a11.37,11.37,0,0,0,.91,4.28A2,2,0,0,1,68.58,423,1.78,1.78,0,0,1,67.24,424.77Zm-24.9,8.13v.31c0,.38-.44.7-.44.7a12.92,12.92,0,0,1-2.51,1.48c-.5.2-1.73.91-1.73-.43v-4.33h0V411.34a28.67,28.67,0,0,1-5.07,3.93.27.27,0,0,1-.4,0,.28.28,0,0,1,.05-.35,33.59,33.59,0,0,0,8.51-16c.07-.21.16-.29.29-.25a31.4,31.4,0,0,1,4.69,1.54c.52.27.77.59.74,1s-.47.52-1.09.55a39.53,39.53,0,0,0-3,4.23v27Zm14.53-.82v.35c0,.38-.46.7-.46.7a12.65,12.65,0,0,1-2.53,1.5c-.51.2-1.75.91-1.75-.43V406.92c-.1.49-.74.63-1.2.78-.19.1-.33.57-.34.7h0q-.18,13.92-5.82,19.7c-.2.17-.49.26-.62.16s-.08-.25,0-.5q2.45-6.48,2.44-19.61v-1.29h0c0-.85-.73-1.42-.78-1.86,0-.22,0-.33.5-.36a19.47,19.47,0,0,1,3.91.94,4.27,4.27,0,0,1,1.89,1.17V398.8H49.81l-3.24.39c-.23.1-.36.05-.4-.15-.13-.56-.27-1.14-.4-1.74,0-.16.12-.23.45-.2l3.59.35h2.37v-7.83l-.69-1.69c-.05-.09,0-.26.29-.2,1.92.56,4,1.08,5.39,1.68.61.25,1,.63,1,1s-.32.51-.82.82c-.3.18-.44.3-.44.58v5.67h2.44a.76.76,0,0,0,.74-.35c.5-.79,1.15-1.7,1.94-2.73q.41-.64,1.05-.15a11.37,11.37,0,0,1,2.74,3.18,1,1,0,0,1,.25,1c-.1.26-.35.4-.75.4H56.87Zm23.29-28.51a.92.92,0,0,1,.24,1c-.09.27-.34.4-.74.4H75.43v24.48a7.9,7.9,0,0,1-.69,3.43c-1,1.7-3,2.54-5.88,2.54-.39,0-.58-.17-.54-.5-.07-2.29-2.2-3.35-4.69-4.34-.23-.1-.33-.22-.3-.45s.15-.24.38-.21c1.86.2,4.36.18,5.75.21.83,0,1.24-.35,1.24-1.14V405H68.11l-3.23.39c-.23.1-.36.05-.4-.14-.13-.57-.26-1.15-.39-1.75,0-.16.11-.23.44-.19l3.58.34h5.33a.88.88,0,0,0,.75-.4,25.13,25.13,0,0,1,2-2.78.61.61,0,0,1,1-.2A13,13,0,0,1,80.16,403.57ZM59,387.65c-.13-.16-.6-.62-.39-.67,1.43.28,4.63.54,6.66,2.31a2.52,2.52,0,0,1,.63,2.56,2.05,2.05,0,0,1-1.41,1.54c-1.59.5-2-.89-3.28-2.61C60.3,389.55,60,388.93,59,387.65Z"/><path d="M42.51,353.44a11,11,0,0,0,.74-2.18h3.47v2.58a2.7,2.7,0,0,0,.25,1.29c-.32-.33-1.87-.52-4.61-.55-.13,0-.2.08-.2.25v4H40.67l-3.57-.35c-.33,0-.48,0-.44.2.13.59.26,1.17.4,1.73q0,.3.39.15l3.22-.4h1.49v2.93c-3.1,0-5.25,0-6.44-.05-.3,0-.44.08-.4.35a13.4,13.4,0,0,0,1.19,4.11.77.77,0,0,0,.65.55c.22,0,.43-.23.59-.6s.43-.41,1.19-.54c7.93-1.69,12.9-3.13,15-4,.33-.13.74-.32.71-.59s-.45-.17-.88-.1c-2.22.23-4.56.46-7,.69v-2.73h5.7c.4,0,.65-.13.74-.39a.91.91,0,0,0-.25-1,6.94,6.94,0,0,0-1.09-1.59.89.89,0,0,1,.4,0,17,17,0,0,0,4.91-.55A1.8,1.8,0,0,0,58.38,355a2,2,0,0,0-1.29-1.79c-.33-.23-.46-.92-.39-2.08,0-.23-.09-.35-.25-.35s-.25.1-.35.3c-.5,1.39-.94,2.17-1.34,2.33l-1.73.1c-1.43,0-2.16-.18-2.18-.55v-1.68h3.51c.4,0,.65-.13.75-.4a.93.93,0,0,0-.25-1,7.92,7.92,0,0,0-1.93-2.48.55.55,0,0,0-.85.1,11,11,0,0,1-2.33,2.43H47v-3h6q.6,0,.75-.39a1,1,0,0,0-.25-1A7.89,7.89,0,0,0,51.54,343a.56.56,0,0,0-.85.1,10.71,10.71,0,0,1-2.33,2.43H47v-1.19c0-.06,0-.11,0-.17s.2-.25.42-.38c.5-.31.82-.43.82-.82s-.41-.72-1-1a50.92,50.92,0,0,0-5.05-1.55c-.23-.07-.34.1-.29.2l.39,1.56v3.31H40.48l-3.57-.34c-.33,0-.48,0-.45.19.13.6.27,1.18.4,1.74q0,.3.39.15l3.23-.4h1.78v3H37.9l-3.57-.35c-.33,0-.48,0-.45.2.13.6.27,1.17.4,1.73q0,.3.39.15l3.23-.39h.74c-.13,2.08-1.3,3.82-3.52,5.2a11.19,11.19,0,0,1-2.18,1c-.25.09-.53.15-.55.32s.22.2.46.24C37.91,357.47,41.12,356,42.51,353.44Zm4.56,3.12a.91.91,0,0,0,.6-.54,9.2,9.2,0,0,0,2,.94,22.21,22.21,0,0,1-1.88,1.89H46.68v-1.49A.82.82,0,0,1,47.07,356.56Zm30.8,14.68c.23.27.3.5.2.7a.89.89,0,0,1-.84.34H53.52A31.1,31.1,0,0,1,49,376.55c5.9-.06,11.32-.25,16.25-.54-.62-.63-1.28-1.26-2-1.86-.2-.17-.79-.74-.53-.82.69-.08,7.61,1.51,10.28,3.59a3.17,3.17,0,0,1,1,3.18,2.57,2.57,0,0,1-1.67,2c-2,.74-2.63-1-4.3-3.06-.45-.56-1-1.18-1.55-1.81q-8.67,1.75-25.14,3.55c-.83.14-1.29.32-1.39.55-.16.39-.39.6-.69.6s-.61-.22-.75-.65a24.83,24.83,0,0,1-1-4.76c0-.33.12-.45.45-.35,1.68.2,4.53.32,8.53.35a19.62,19.62,0,0,0,1.78-4.27H37.9l-2.93.45q-.49.19-.54-.15a13.64,13.64,0,0,1-.5-1.78c-.06-.24.12-.3.55-.2l3.42.34H69.34a1.17,1.17,0,0,0,.84-.39,35.6,35.6,0,0,1,2.53-3.18.67.67,0,0,1,.9-.09A14.42,14.42,0,0,1,77.87,371.24Zm-30.45-4.46H60.71a.86.86,0,0,0,.8-.35c.76-1,1.55-2,2.37-2.92a.57.57,0,0,1,.85-.05,14.15,14.15,0,0,1,3.81,3.62c.24.26.3.49.21.69a.92.92,0,0,1-.85.35H47.42l-2.93.45q-.5.19-.54-.15a15.58,15.58,0,0,1-.5-1.79c-.07-.23.12-.3.55-.2ZM33.54,337.27c-.07-.23.11-.3.54-.2l3.42.35h10v-2.59l-.38-1.53c0-.09.06-.26.28-.2a50.53,50.53,0,0,1,4.85,1.53c.58.24,1,.61,1,.93s-.3.48-.78.78c-.29.17-.46.27-.42.55v.53h8.66V334.9l-.41-1.6c0-.09.06-.26.29-.2a52.7,52.7,0,0,1,5,1.59c.6.24,1,.62,1,1s-.31.51-.81.81c-.29.18-.47.29-.43.57v.39h5.15a.89.89,0,0,0,.79-.4c.77-1,1.59-2,2.48-3a.57.57,0,0,1,.85-.05,13.8,13.8,0,0,1,4.06,3.77c.23.26.3.49.2.69a.89.89,0,0,1-.84.35H65.37l0,0v.78c0,.38-.46.7-.46.7a12.69,12.69,0,0,1-2.5,1.48c-.5.2-1.73.9-1.73-.43v-2.57H52v.79c0,.36-.44.67-.44.67a12.26,12.26,0,0,1-2.41,1.43c-.49.19-1.67.87-1.67-.41v-2.48h-10l-2.92.45c-.33.13-.52.08-.55-.15A13.78,13.78,0,0,1,33.54,337.27Zm46.28,14c.37.15-.49,4.28-.65,5-1,4.48-.93,5-1.42,6.85.59,1.23.7,2.41.14,2.93a2.5,2.5,0,0,1-2.22.44,5.79,5.79,0,0,1-2.77-2.37,8.67,8.67,0,0,1-.77-1.11.91.91,0,0,0-.11-.16h0q-2.3-4.08-2.29-12.65c0-.33-.17-.48-.4-.45H67a54.19,54.19,0,0,1-1,6,8.74,8.74,0,0,1,2.33,2.83,3.19,3.19,0,0,1,.3,2.33,2,2,0,0,1-3.13,1.29,4.49,4.49,0,0,1-1.29-2.58,14.32,14.32,0,0,1-9,5.75c-.2,0-.32,0-.35-.15a.39.39,0,0,1,.2-.34q5.3-2.83,6.79-9.53A8.77,8.77,0,0,0,59.12,353c-.16-.13-.23-.26-.19-.39a.3.3,0,0,1,.34-.25,7.76,7.76,0,0,1,2.88.89c.07-.43.12-.84.15-1.24,0-.76,0-1.55.05-2.38h-1l-2.73.4c-.43.16-.66.13-.7-.1l-.39-1.59c0-.26.11-.38.44-.35l3.38.3H62.4c0-1,.05-2,.05-3.07,0-.66,0-1.36,0-2.09,0-.2.11-.29.35-.29a44,44,0,0,1,4.36.69c.62.13.94.36.94.69l-.94,1.34q-.1,1.39-.15,2.73h1.88a9,9,0,0,0,1.69-1.93c.16-.27.45-.3.84-.1a16.58,16.58,0,0,1,3.77,2c1.09.79.94,1.46-.44,2a.5.5,0,0,0-.35.49,18.73,18.73,0,0,0,.45,6.75.6.6,0,0,0,.34.24.7.7,0,0,0,.72-.17c.44-.4.57-.48,1.64-2.43C77.9,354.59,79.55,351.11,79.82,351.22Z"/><path d="M80,323.52a2.36,2.36,0,0,1-1.64,2.14,14,14,0,0,1-4.48,1.09c-1.6.14-4,.2-7.22.2q-6.12,0-8.36-.95a4.38,4.38,0,0,1-2.54-2.13,6.51,6.51,0,0,1-.54-2.49l0-35.95h0v-3.69l-.5-1.72c-.06-.1.06-.28.3-.21a55.57,55.57,0,0,1,5.43,1.7c.64.26,1.07.67,1.07,1s-.34.53-.87.86c-.31.19-.5.3-.46.61V303a51.59,51.59,0,0,0,12-13.58,8.07,8.07,0,0,0,.65-1.4c.08-.24.16-.36.71-.17a14.47,14.47,0,0,1,3,2.22c.78.73,1.68,1.88,1.53,2.21-.27.62-1.09.46-1.69.42h0a.53.53,0,0,0-.5.14,45.21,45.21,0,0,1-15.63,11.55v15.77a1.61,1.61,0,0,0,.25,1,1.67,1.67,0,0,0,1.1.64,2.85,2.85,0,0,0,.49.11q9.26.5,12.39-.4c.73-.53,1.39-2.37,2.14-5.48.2-.83.37-1.84.6-1.8s.21,1.57.24,1.9c0,3.06.56,4.83,1.25,5.33A2.23,2.23,0,0,1,80,323.52ZM51,283.16c-.1.43-.55.66-1.35.7-.33,0-.59.26-.79.79q-2.45,5.73-4.43,9.36l1.84.95a.89.89,0,0,1,.55.79c-.43.4-.85.76-1.25,1.1v28.46h0v.36c0,.4-.47.74-.47.74A13.34,13.34,0,0,1,42.46,328c-.53.21-1.82.95-1.82-.45V299.68a.14.14,0,0,0,0,.1,32.92,32.92,0,0,1-7.42,6.92c-.4.25-.85.3-1,.18s.17-.49.48-.83A40.83,40.83,0,0,0,37,300.43a.86.86,0,0,1,.29-.45,57.5,57.5,0,0,0,7-19.46c.07-.33.3-.44.7-.34a18.34,18.34,0,0,1,5.42,2Q51.14,282.56,51,283.16Z"/><path d="M80.19,271.39a47.17,47.17,0,0,1-20.62-7.72,47.58,47.58,0,0,0,6.09-9.47A73.63,73.63,0,0,0,70,239.6h9.37a.94.94,0,0,0,.87-.35q.15-.31-.21-.72a16.73,16.73,0,0,0-4.6-4.25.69.69,0,0,0-1,.11c-1,1.12-1.86,2.25-2.72,3.37a1,1,0,0,1-.87.46h-12v-5.3c0-.3.15-.42.46-.62.55-.33.89-.47.89-.88s-.44-.78-1.08-1c-1.54-.63-3.73-1.2-5.8-1.79-.25-.07-.37.11-.32.21l.76,1.81v7.62H36.71l-3.53-.36c-.44-.1-.63,0-.56.21a14.12,14.12,0,0,0,.51,1.84c0,.24.22.29.56.15l3-.46h9c1,9.82,3.67,18.44,7.93,24.27a48.55,48.55,0,0,1-20.1,12.23.37.37,0,0,0-.36.41c0,.2.17.28.41.25A37.65,37.65,0,0,0,56.3,267a36.93,36.93,0,0,0,19.54,9.72c.44,0,.68,0,.71-.2a5.13,5.13,0,0,1,1.18-2.41,5.38,5.38,0,0,1,2.56-1.84c.34-.14.49-.31.46-.51S80.52,271.42,80.19,271.39ZM56.25,260.91a29.63,29.63,0,0,1-6.09-7.83c-1.74-3.41-2.9-8.43-3.48-13.48H65C63.56,247.68,60.65,255.31,56.25,260.91Z"/><path d="M43.07,195.4c0,1.4,1.3.66,1.83.45a13.57,13.57,0,0,0,2.65-1.57.84.84,0,0,0,.47-.74v-1H64.68v2.6c0,1.39,1.31.65,1.83.44,1.27-.5,2.65-1.14,2.65-1.14a.83.83,0,0,0,.47-.73V182.17c0-.3.15-.46.46-.62.62-.2,1.9-.58,2-.94s-.1-.67-.47-1c-1-1-2.83-2.74-4.58-3.3a.6.6,0,0,0-.77.1L65,177.75c-.43.48-.82.86-1.36.86H48.28a26.15,26.15,0,0,0-5-2.47c-.15,0-.25.1-.21.41ZM48,180H64a.66.66,0,0,1,.66.7V191.2H48Zm27.21,18.57a.61.61,0,0,0-.78.1L73.22,200a2,2,0,0,1-1.75.86H63.11a26.63,26.63,0,0,0-5-2.47c-.16,0-.26.11-.21.42v23.9c0,1.4,1.3.67,1.83.45a13.53,13.53,0,0,0,2.64-1.56.84.84,0,0,0,.48-.74v-1.79H72.92V222c0,1.4,1.3.66,1.83.45,1.27-.51,2.64-1.14,2.64-1.14a.84.84,0,0,0,.48-.74V204.41c0-.31.16-.46.47-.61.61-.21,1.89-.59,1.94-1s-.09-.67-.46-1A13.56,13.56,0,0,0,75.23,198.52Zm-2.31,19.2H62.85V202.19h9.4a.67.67,0,0,1,.67.7Zm-22.36-19.2a.61.61,0,0,0-.78.1,18.15,18.15,0,0,1-2.12,2.23H39.29a26.32,26.32,0,0,0-5-2.47c-.16,0-.26.11-.2.42v23.9c0,1.4,1.29.67,1.82.45a13.76,13.76,0,0,0,2.65-1.56.84.84,0,0,0,.47-.74v-1.79h9.21V222c0,1.4,1.3.66,1.83.45,1.26-.51,2.65-1.14,2.65-1.14a.84.84,0,0,0,.47-.74V204.41c0-.31.16-.46.47-.61.61-.21,1.89-.59,1.94-1s-.09-.67-.46-1C54.08,200.79,52.31,199.08,50.56,198.52Zm-2.31,19.2H39V202.19h8.54a.67.67,0,0,1,.67.7Z"/><path d="M33.52,128.55l-.75-1.83c0-.17.07-.21.39-.14l2.78.25h6.51a.61.61,0,0,0,.57-.25l.91-1.46a.37.37,0,0,1,.57,0,8.73,8.73,0,0,1,2.67,2.53c.18.18.22.36.14.5s-.25.25-.57.25H35.94l-2,.28C33.7,128.76,33.55,128.73,33.52,128.55Zm-.72,6.79L32,133.51c0-.17.07-.21.4-.14l2.78.25h8a.64.64,0,0,0,.58-.25l.9-1.45a.37.37,0,0,1,.57,0A8.62,8.62,0,0,1,48,134.41a.45.45,0,0,1,.15.5c-.11.18-.25.25-.58.25H35.22l-2,.28C33,135.55,32.83,135.51,32.8,135.34ZM70,124.59c-.14-.16-.6-.62-.39-.68,1.43.29,4.64.55,6.66,2.32a2.52,2.52,0,0,1,.63,2.56,2.05,2.05,0,0,1-1.41,1.54c-1.59.5-2-.89-3.28-2.61C71.36,126.49,71.07,125.87,70,124.59ZM33.52,148.08l-.75-1.82c0-.18.07-.21.39-.14l2.78.25h5.64a.6.6,0,0,0,.57-.25l.91-1.46c.18-.18.32-.21.57,0a8.62,8.62,0,0,1,2.67,2.53c.18.18.22.36.14.5s-.25.25-.57.25H35.94l-2,.28C33.7,148.3,33.55,148.26,33.52,148.08Zm12.78-7.41c.18.18.22.35.14.49s-.25.25-.57.25H35.94l-2,.29c-.21.11-.36.07-.39-.11l-.75-1.82c0-.18.07-.21.39-.14l2.78.25h5.64a.62.62,0,0,0,.57-.25l.91-1.46c.18-.18.32-.21.57,0A8.62,8.62,0,0,1,46.3,140.67ZM79.73,159.2c0-.68.09-4.63-.27-4.73s-1.25,3.54-1.38,4.11a12.08,12.08,0,0,1-1.71,4.11.7.7,0,0,1-.62.31c-1.65-.18-3.76-3.86-4.57-6.4l.57-.88a57.77,57.77,0,0,0,4.59-10.06c.06-.15.36-.66.62-.71.62,0,1.5,0,1.69-.68.1-.35-1-1.38-1.87-2A23.65,23.65,0,0,0,72.5,140c-.58-.11-.64,0-.7.27-.07.53.56,1.4.36,2.42-.66,3.21-1.89,8.07-3.08,9.63-1.07-4.33-1.6-11.2-1.76-16.71h12c.46,0,.67-.1.83-.35s.06-.43-.21-.68a35.05,35.05,0,0,0-3.84-3.22.6.6,0,0,0-.83.05l-2,2.5a.92.92,0,0,1-.83.37h-5.1v-5.4c0-1.39-.15-1.83,1-2.36.55-.25,1-.52,1-.88s-1.27-1.14-2.16-1.45c-1.09-.38-2.88-.75-4.32-1.11-.45-.11-.66.1-.61.42.15.87.89,1.85.84,2.78l.1,8H54.87c-1.86-1-3.45-2-4.79-2.51-.26,0-.36.05-.36.42v9.22c0,12.31-.4,19.75-3.25,25.2-1.43,2.74-4.21,4.84-4.11,4.94A6.13,6.13,0,0,0,45.82,170a20.32,20.32,0,0,0,5.77-8.16c.37-.24,1.88.84,2.24,1.56,0,0-.33,2.32.85,2.32,4.76,0,6.13-4.66,6.52-6.56a126.67,126.67,0,0,0,.29-13.8l.63-.39a2.35,2.35,0,0,1,1.92.13,72.56,72.56,0,0,0,2.51,11.81,55.68,55.68,0,0,1-6.43,9.65A22.8,22.8,0,0,1,55.64,171c-.12.1.22.24.42.16,4.82-2,8.28-5.8,12.19-10.34a39.44,39.44,0,0,0,6,7.3c1.87,1.83,3.23,2.53,4.11,2.53a2.35,2.35,0,0,0,1.92-.88c.39-.59,0-1.65-.76-2.63C79.59,165.32,79.77,163.49,79.73,159.2Zm-22.3-.1c-.48,2.17-1.58,2-3,2-.49,0-1.46-.06-2.41-.12v-.3C53.2,157.52,54.14,145,54.14,145l3,0a.48.48,0,0,1,.57.51A88.07,88.07,0,0,1,57.43,159.1Zm3.9-18.28a.53.53,0,0,0-.57,0,16.53,16.53,0,0,0-2,2.32l-.56.36h-4v-7.9h9c.11,2.6.29,4.81.56,7.12Zm-17.84,26.9a7.32,7.32,0,0,0,2-1.42,1.35,1.35,0,0,0,.36-.77v-9.46c0-.23.12-.71.35-.83.45-.15,1.4-.67,1.44-.94s-.07-.5-.35-.76a9.87,9.87,0,0,0-3.39-2.26.46.46,0,0,0-.58.07,15.17,15.17,0,0,1-1.57,2H37.13a23.38,23.38,0,0,0-4.08-2.53c-.11,0-.19.07-.15.3v18.72c0,1,1.34.48,1.73.33a9.07,9.07,0,0,0,1.77-1,1.17,1.17,0,0,0,.55-1v-3.79h5.2v3C42.14,168.42,43.1,167.87,43.49,167.72Zm-1.35-4.36h-5.2v-9h4.7a.5.5,0,0,1,.5.53Z"/><path d="M47.71,556.88c-.44-.1-.62,0-.55.2a13.66,13.66,0,0,0,.5,1.81c0,.23.22.29.55.15l2.95-.45H64.58c.58,0,.91-.13,1.1-.45a.78.78,0,0,0-.26-.9,28.41,28.41,0,0,0-3.31-2.87.74.74,0,0,0-1.09.13l-1.41,1.83c-.26.26-.65.92-1.15.92H51.17Z"/><path d="M80.19,555.38a44.4,44.4,0,0,1-14.08-3.22,23.07,23.07,0,0,1-7.63-4.83,1.38,1.38,0,0,0,.45-.45c.13-.33-.07-.72-.6-1.15a38.56,38.56,0,0,0-4.72-2.46c-.2-.11-.35,0-.45.2C49.31,551,42.44,557.05,33,561c-.58.21-.88.38-.81.63s.18.19.48.19a52.37,52.37,0,0,0,6.26-1.6v10.47h0v4.37c0,1.34,1.23.62,1.74.42a8.18,8.18,0,0,0,1.07-.53v17.19a2.49,2.49,0,0,0,0,.48h0c0,1.35,1.24.64,1.75.44C44.72,592.58,46,592,46,592a.81.81,0,0,0,.45-.72v0H66.09v.69a2.54,2.54,0,0,0,0,.39v.35c0,1.35,1.25.64,1.76.44,1.23-.49,2.55-1.1,2.55-1.1a.81.81,0,0,0,.46-.72v-7.39h0v-3.93c0-.29.15-.44.44-.59.6-.2,1.83-.57,1.87-.91s-.08-.65-.44-1a22.91,22.91,0,0,0-2.41-2.1l.51-.22c1.23-.49,2.57-1.1,2.57-1.1a.83.83,0,0,0,.47-.73v-4.09h0v-4c0-.27.15-.41.44-.56.59-.19,1.82-.56,1.87-.91s-.09-.64-.44-1a13.19,13.19,0,0,0-4.42-3.18.58.58,0,0,0-.74.1L69.38,561a1.84,1.84,0,0,1-1.64.82H43.94a26.14,26.14,0,0,0-3.95-2,57.53,57.53,0,0,0,9.78-5.2,93.16,93.16,0,0,0,7.3-6.89,1.13,1.13,0,0,1,.36-.3c2.81,5,9,9.62,18.47,13.17.4.13,1.06,0,1.13-.35a5.38,5.38,0,0,1,3.42-4c.3-.13.42-.32.35-.55S80.56,555.45,80.19,555.38Zm-14.1,34.45H46.5v-5.54H66.09Zm0-6.9H46.5v-.5h0v-4.55h19a.63.63,0,0,1,.61.64Zm2.39-19.72a.65.65,0,0,1,.62.67v3.94h0v4.07H61.82a30.36,30.36,0,0,0,4.67-4.56h0c.53-.05,1.3,0,1.47-.6.08-.3-.85-1.21-1.63-1.75a29.68,29.68,0,0,0-3.18-1.77Zm-9.9,0H62s0,0,0,0c0,.39.35,1.13.36,1.89,0,.13,0,.26,0,.39h0a19,19,0,0,1-1.86,6.36H58.58Zm-14.89,4.61h0V563.2H53.81v8.68H43.69Zm-.5,6.17s.46-.32.46-.7v0h25.4v1.33a5.7,5.7,0,0,0-.73-.31.61.61,0,0,0-.75.1l-1.19,1.32a2,2,0,0,1-1.66.83h-18a26.26,26.26,0,0,0-4.13-2.11C43,574.17,43.19,574,43.19,574Z"/><path d="M45.64,563.62c-.21,0,.11.57.19.76.65,1.53.75,2.22,1.25,3.66.71,2,.75,3.48,2.43,3.46a2.08,2.08,0,0,0,1.8-1.1,2.52,2.52,0,0,0,.12-2.65C50,565.46,47,564.3,45.64,563.62Z"/><path d="M35,84.77a.76.76,0,0,1-.19-.55V68.82l.05-.16H35a12.86,12.86,0,0,1,2.33.91h2.26a.59.59,0,0,0,.47-.09l.61-.68a.44.44,0,0,1,.5-.19,9.18,9.18,0,0,1,2,1c.47.38.4.73-.24,1a.27.27,0,0,0-.18.26v13a.81.81,0,0,1-.41.71,2,2,0,0,1-1,.26,1,1,0,0,1-.71-.24.8.8,0,0,1-.12-.45v-.54H37.05v.21a1.32,1.32,0,0,1-.17.73,9.63,9.63,0,0,1,1.74.62c.26.11.38.25.36.44s-.22.24-.5.26l-.21.14a12.38,12.38,0,0,1-4.43,4.29h-.16v-.17a13.74,13.74,0,0,0,2.59-5.13A1.44,1.44,0,0,1,35,84.77Zm5.53-10.58V70.3c-.07-.11-.14-.14-.23,0h-3.2v3.93Zm0,4.31V74.8H37.05v3.7Zm0,4.43V79.14H37.05v3.79Zm-1.27,1.55c0-.07.12-.09.24-.07l.92.4a5.36,5.36,0,0,1,2.82,3,1.74,1.74,0,0,1-.09,1.32,1.13,1.13,0,0,1-.85.71c-.85.09-1.32-.4-1.37-1.46a4.8,4.8,0,0,0-1.62-3.63A.22.22,0,0,1,39.21,84.48Zm5.91-9.21-1.5.17c-.1,0-.14,0-.17,0l-.19-.82c0-.1.05-.1.22-.1l1.64.17h4.2V68.4c0-.15,0-.22.11-.19l2.17.28c.4.07.61.19.61.4l-.66.66v5.09h.66a.36.36,0,0,0,.33-.17l.9-1.25c.12-.21.28-.23.49-.07a5.24,5.24,0,0,1,1.27,1.46.46.46,0,0,1,.1.47c0,.12-.14.19-.33.19H51.55V88.11a1.78,1.78,0,0,1-.77,1.51,3.48,3.48,0,0,1-2.22.7c-.16,0-.21,0-.21-.14,0-.92-.61-1.58-1.77-2-.14,0-.18-.12-.18-.26s0-.19.16-.19a10.1,10.1,0,0,0,2.57-.07.56.56,0,0,0,.16-.42V78.9l-.49,1A14.2,14.2,0,0,1,46,83.78a8.2,8.2,0,0,1-2.73,1.81c-.12,0-.19,0-.22,0a.15.15,0,0,1,.1-.19c2.52-2.33,4.26-5.72,5.18-10.08Z"/><path d="M60.09,89.5a1,1,0,0,1-.3.87,1.69,1.69,0,0,1-1.09.33.78.78,0,0,1-.61-.21.67.67,0,0,1-.17-.54V68.35h.19a11,11,0,0,1,2.26.87H74.6a.51.51,0,0,0,.43-.09l.63-.66c.14-.17.28-.24.45-.17a6,6,0,0,1,1.93,1c.45.31.38.64-.19.9-.12.07-.19.14-.19.26V89.64a.7.7,0,0,1-.4.66,1.74,1.74,0,0,1-1,.24.81.81,0,0,1-.64-.22.54.54,0,0,1-.14-.42v-.57H60.09Zm15.38-.59v-19c-.07-.12-.14-.14-.23-.05H60.09v19ZM62.59,83.64l-1.49.18c-.09.05-.16,0-.18-.07l-.19-.8c0-.09.05-.12.21-.09l1.65.16h6.69V81.47c0-.12,0-.14.14-.14a12.82,12.82,0,0,1,2.09.16c.36.07.52.21.52.4l-.54.71V83h.45a.33.33,0,0,0,.3-.14l.88-1.18a.3.3,0,0,1,.45-.07A5,5,0,0,1,74.69,83a.38.38,0,0,1,.12.45.34.34,0,0,1-.35.19h-3V86.3A1.65,1.65,0,0,1,71,87.69a2.83,2.83,0,0,1-1.9.7c-.1,0-.17,0-.15-.14a2.11,2.11,0,0,0-1.24-2,.17.17,0,0,1-.14-.23.15.15,0,0,1,.21-.14l.87.09c.42,0,.66-.12.66-.42V83.64Zm.63-1.82c-.33.07-.51.14-.54.26s-.16.26-.28.26a.31.31,0,0,1-.31-.26,13.19,13.19,0,0,1-.49-1.93c0-.14,0-.19.19-.17a38.67,38.67,0,0,0,4.07,0h.76V78.48H63.93a.82.82,0,0,1-.33.52,2.17,2.17,0,0,1-1,.3,1.08,1.08,0,0,1-.68-.19c-.12-.09-.17-.28-.15-.56v-5c0-.1,0-.17.1-.14a5.85,5.85,0,0,1,2,.73h2.76V72.78H62.68L61.17,73A.1.1,0,0,1,61,72.9l-.19-.81c0-.09,0-.11.21-.09l1.65.16h3.94V70.4c0-.05,0-.07.11-.07a13.29,13.29,0,0,1,2.27.28c.28.07.42.19.42.35s-.12.33-.38.4-.23.15-.21.26v.54h2.73a.35.35,0,0,0,.33-.16l.87-1.2c.12-.21.26-.24.45-.07a4.67,4.67,0,0,1,1.2,1.41c.14.17.19.33.12.45a.34.34,0,0,1-.35.19H68.83V74.1H71a.33.33,0,0,0,.26-.15l.57-.56h.21a6,6,0,0,1,1.9,1c.43.28.38.57-.14.8a.34.34,0,0,0-.21.36v2.71a.77.77,0,0,1-.35.58,2.13,2.13,0,0,1-1.06.26.78.78,0,0,1-.64-.23l-.14-.4H68.83v1.43l1.67-.14a2,2,0,0,0-.94-.42l-.14-.14c0-.07,0-.12.14-.14l.66-.1a3.74,3.74,0,0,1,2.71.78,1.36,1.36,0,0,1,.4.89.71.71,0,0,1-.31.76.79.79,0,0,1-.78.14,1.17,1.17,0,0,1-.61-.57l-.54-.68C69,80.81,66.31,81.35,63.22,81.82Zm-.28,2.29a.12.12,0,0,1,.17-.07h0a3.7,3.7,0,0,1,2.5,1.76,1.43,1.43,0,0,1-.05,1.09.83.83,0,0,1-.68.58c-.73.1-1.11-.28-1.15-1.17a2.83,2.83,0,0,0-.78-2Zm3.68-9.4H64.43l-.48.07v1.15h2.67Zm0,1.84H64v1.31h2.67Zm2.21-.62h2.59V74.78c-.07-.12-.14-.14-.26-.07H68.83Zm0,1.93h2.59V76.55H68.83Z"/><path d="M40.55,98.18c.15,0,.19.16.12.37l-3.08,9.38a5.33,5.33,0,0,0,.21,3.16,4.15,4.15,0,0,1,.16,2.85,1.27,1.27,0,0,1-1.08.94,1.15,1.15,0,0,1-1.08-.38,3.12,3.12,0,0,1-.31-2.5,9,9,0,0,0,.12-2.71,2.82,2.82,0,0,0-1.93-1.1c-.14-.07-.19-.17-.14-.28s.11-.12.28-.12a6.74,6.74,0,0,0,1.55,0,.53.53,0,0,0,.47-.19l4.43-9.18C40.37,98.23,40.46,98.15,40.55,98.18Zm-6.87.8c0-.1.11-.12.23-.1a4.35,4.35,0,0,1,3.42,2.36,2.07,2.07,0,0,1,0,1.39,1.2,1.2,0,0,1-.87.78c-.88.14-1.39-.36-1.49-1.44a3.57,3.57,0,0,0-1.22-2.73A.26.26,0,0,1,33.68,99Zm1.9-5.72c0-.1.07-.15.19-.15h.14c1.87.31,3.14,1,3.75,1.86a1.72,1.72,0,0,1,.21,1.37,1.15,1.15,0,0,1-.68.92c-.85.28-1.46-.1-1.72-1.15a3.68,3.68,0,0,0-1.82-2.6A.25.25,0,0,1,35.58,93.26Zm8.89,18.27q3.53-.21,6.63-.68A4.77,4.77,0,0,0,49,108.52a.21.21,0,0,1-.1-.24.17.17,0,0,1,.21-.12l1.27.48A8.11,8.11,0,0,1,53,110.4a6,6,0,0,1,1.32,1.93,1.76,1.76,0,0,1,.07,1.37,1.06,1.06,0,0,1-.8.85,1.16,1.16,0,0,1-1.06-.24,1.82,1.82,0,0,1-.49-1.08,8.93,8.93,0,0,0-.67-1.84c-3.65.9-7.08,1.65-10.26,2.24-.36.07-.57.16-.59.28a.43.43,0,0,1-.29.31.38.38,0,0,1-.35-.28,8.67,8.67,0,0,1-.59-2.1c0-.14,0-.19.21-.19h2.69A40.7,40.7,0,0,0,45,104.47h-3.4l-1.34.21c-.14.07-.23,0-.26-.07l-.23-.83c0-.11,0-.14.26-.09l1.57.14h3.82V98.67H43.1l-1.37.21c-.14.05-.21,0-.23-.07L41.26,98c0-.1.05-.12.26-.08L43.1,98h2.33V92.88s0-.07.12-.07a14,14,0,0,1,2.35.28c.31.09.45.21.45.38s-.14.35-.4.42-.26.12-.24.26V98h2.43a.52.52,0,0,0,.38-.17l1.18-1.48a.32.32,0,0,1,.42,0,7.4,7.4,0,0,1,2,1.84.27.27,0,0,1,.09.33c-.07.12-.19.16-.4.16H47.71v5.16h3.35a.48.48,0,0,0,.38-.16l1.17-1.49a.33.33,0,0,1,.43-.05A7.71,7.71,0,0,1,55,104c.11.12.14.24.09.33s-.19.17-.4.17H47.64a30.9,30.9,0,0,1-4.71,7.18Z"/><path d="M71.19,105.6a13.71,13.71,0,0,0,7.37,7c.12,0,.19.07.16.19s-.07.16-.23.16a2.54,2.54,0,0,0-2.22,1.46c-.07.12-.16.12-.3,0a14,14,0,0,1-2.27-1.77q-5.08-5.06-5.25-14.37L68,102.42a17.64,17.64,0,0,1-2.22,6.1c-1.62,2.75-4.4,4.83-8.29,6.1-.11,0-.21,0-.23-.05s0-.16.14-.23a19,19,0,0,0,3.74-2.67,15.94,15.94,0,0,0,3.7-5.56c1-2.75,1.46-7,1.46-12.64,0-.17,0-.24.14-.24a11.17,11.17,0,0,1,2.55.24c.28.07.45.19.45.37s-.15.31-.4.38l-.1,0A21.14,21.14,0,0,0,71.19,105.6Z"/><path d="M12.91,155.39c-.87,0-.87.09-.87,1.06v2.18a12.73,12.73,0,0,0,.19,2.73c.13.35.3.61,1.13.8l1.28.29a.66.66,0,0,1,0,.84c-.77,0-2.05-.13-3.24-.13s-2.38.13-3.11.13c-.2-.13-.2-.61,0-.84l1.25-.32a1.49,1.49,0,0,0,1.22-1,10.76,10.76,0,0,0,.16-2.47v-2.18c0-1,0-1.06-.87-1.06H5.59c-3.37,0-3.85.06-4,2l-.09,1.09c-.13.19-.71.13-.81-.07.07-1.89.1-3,.1-4.27s0-2.5-.1-4a.63.63,0,0,1,.81-.06l.09.8c.23,1.86.65,1.92,4,1.92H17.15c3.37,0,3.82-.06,4.05-1.92l.06-.52a.62.62,0,0,1,.8.07c-.06,1.35-.09,2.44-.09,3.72V160c0,2.06,0,3.92.09,4.34-1.48,0-3,0-4.24.09a.57.57,0,0,1-.09-.77c1.44-.25,2.6-.64,3.05-2.25a15.89,15.89,0,0,0,.19-3.11v-2c0-1-.06-1-1.28-1Z"/><path d="M7.23,178.93a6.56,6.56,0,0,1-6.91-6.77,6.35,6.35,0,0,1,6.62-6.59,6.75,6.75,0,0,1,6.93,6.84A6.41,6.41,0,0,1,7.23,178.93Zm5.68-6.9c0-2.12-2-3.7-5.56-3.7-2.92,0-6.07,1.32-6.07,4.15s3,3.69,5.43,3.69C9.44,176.17,12.91,175.08,12.91,172Z"/><path d="M5.49,184.84c-2.21,0-3.69.55-3.69,3a4.2,4.2,0,0,0,1,2.6,2.25,2.25,0,0,0,1.87.64H9.89c2.09,0,2.15-.22,2.54-1.19l.16-.41a.44.44,0,0,1,.71,0,12.89,12.89,0,0,0,.57,3.76c0,.16-.09.25-.22.28-.61-.06-1.61-.09-2.8-.09H5.46c-2.54,0-3.5.09-3.5,1a5.87,5.87,0,0,0,.16,1.26c-.16.19-.8.22-.93,0A16.73,16.73,0,0,0,0,191.46a.48.48,0,0,1,.22-.39H1.54c.29,0,.45-.09.45-.29a8.36,8.36,0,0,1-1.67-4.43c0-2.82,1.42-3.89,4-3.89H9.7c2,0,2.31,0,2.73-1l.16-.38a.48.48,0,0,1,.71.06,11.6,11.6,0,0,0,.57,3.44c0,.19-.09.29-.22.32a22.69,22.69,0,0,0-2.8-.1Z"/><path d="M10,199c1.25,0,1.41,0,2-.87l.19-.29a.44.44,0,0,1,.58,0,17.67,17.67,0,0,0,1.57,3.21.38.38,0,0,1-.22.36,14.74,14.74,0,0,0-1.51-.07.35.35,0,0,0-.36.36,8.71,8.71,0,0,1,1.64,4.49c0,2.67-1.83,3.76-4,3.76H4.37c-2.32,0-2.63.06-2.8,1.22l-.09.7a.57.57,0,0,1-.81-.06c.07-1,.1-1.89.1-3s0-2.12-.1-3a.57.57,0,0,1,.81-.07l.09.61c.2,1.19.48,1.22,2.8,1.22H9.15c1.83,0,3.18-.83,3.18-3a3.5,3.5,0,0,0-1.12-2.73,2.76,2.76,0,0,0-1.93-.48H4.37c-2.32,0-2.6.07-2.8,1.22l-.09.58a.58.58,0,0,1-.81-.06c.07-.87.1-1.8.1-2.93s0-2.12-.1-3a.58.58,0,0,1,.81-.06l.09.67c.17,1.19.48,1.23,2.8,1.23Z"/><path d="M5.46,226c-2.54,0-3.72,0-3.72.94a5.3,5.3,0,0,0,.31,1.38c-.06.22-.86.25-1,0a24.87,24.87,0,0,0-1-4.24c0-.2.1-.36.26-.36H.8a3.88,3.88,0,0,0,1-.06v-.13a6.63,6.63,0,0,1-1.48-4,5.9,5.9,0,0,1,6.17-5.94c4.49,0,7.38,3.41,7.38,7.77a6.59,6.59,0,0,1-.29,2.16c0,.16.2.19.45.19h4.85c1.9,0,2.09,0,2.67-1l.19-.32a.49.49,0,0,1,.64,0,23,23,0,0,0,1.35,3.47.34.34,0,0,1-.19.32c-1,0-2.57-.1-4-.1Zm4.82-2.37a1.85,1.85,0,0,0,1.25-.36,3.35,3.35,0,0,0,1.35-2.69c0-2.93-2.54-4.43-5.33-4.43s-5.69,1.63-5.69,4.78a3.93,3.93,0,0,0,.9,2.47,1.92,1.92,0,0,0,1.19.23Z"/><path d="M7.42,236c.16.48.45.51.93.54l1.48,0c1.19,0,2.79-.35,2.79-2.34,0-.9-.45-2-1.44-2.06-.52,0-.9-.06-1.1-.32a3.5,3.5,0,0,1-.61-1.83.41.41,0,0,1,.45-.45c1.67,0,3.95,3.63,3.95,6s-1.34,3.43-3.75,3.34l-5.59-.2c-1.48-.06-2.79.23-2.79,1.48a1.78,1.78,0,0,0,.19.8c.09.17.22.32.22.42s-.19.22-.41.22A3.33,3.33,0,0,1,.32,239a2.57,2.57,0,0,1,1-2.09c.19-.13.45-.32.45-.51a5.05,5.05,0,0,0-.64-1.26,4.68,4.68,0,0,1-.81-2.31,3.35,3.35,0,0,1,.74-2.25,3,3,0,0,1,2.25-1c1.25,0,2,.61,2.73,2.66Zm-5.65-2a3.61,3.61,0,0,0,.8,2,1.88,1.88,0,0,0,1.51.42l1.89.06c.36,0,.42-.12.42-.31a6.15,6.15,0,0,0-.32-1.32C5.43,233,4.94,232,3.69,232A1.94,1.94,0,0,0,1.77,234Z"/><path d="M12.07,246.86c0-.55-.09-.58-.77-.58h-6c-1.86,0-3.56.23-3.56,2.35a2.58,2.58,0,0,0,.15.86c.1.29.46.71.46.81s-.36.38-.55.32a4.48,4.48,0,0,1-1.48-3.37c0-2.77,1.54-3.34,3.47-3.34h7.35c.87,0,.93,0,.93-.68v-.9a.56.56,0,0,1,.68-.1,6.29,6.29,0,0,0,1,2.06,7.76,7.76,0,0,0,1.89,1.35c.06.16.06.54-.16.67H14c-.57,0-.6,0-.6.58v3.56a1,1,0,0,1-1.36,0Z"/><path d="M10,253.76c1.25,0,1.41,0,2-.86l.19-.29a.44.44,0,0,1,.58,0A22.54,22.54,0,0,0,14.32,256c0,.16-.06.29-.19.32-1.12-.07-2.66-.13-4-.13H4.37c-2.32,0-2.63.06-2.8,1.22l-.09.67A.56.56,0,0,1,.67,258c.07-1,.1-1.89.1-3s0-2.12-.1-3a.58.58,0,0,1,.81-.06l.09.67c.17,1.19.48,1.22,2.8,1.22Zm9.3,2.64a1.66,1.66,0,0,1-.06-3.31,1.66,1.66,0,0,1,1.7,1.73A1.55,1.55,0,0,1,19.29,256.4Z"/><path d="M7.23,273a6.56,6.56,0,0,1-6.91-6.77,6.35,6.35,0,0,1,6.62-6.59,6.75,6.75,0,0,1,6.93,6.84A6.41,6.41,0,0,1,7.23,273Zm5.68-6.9c0-2.12-2-3.7-5.56-3.7-2.92,0-6.07,1.32-6.07,4.15s3,3.69,5.43,3.69C9.44,270.27,12.91,269.18,12.91,266.13Z"/><path d="M10,277c1.25,0,1.41,0,2-.86l.19-.29a.44.44,0,0,1,.58,0,17.67,17.67,0,0,0,1.57,3.21.36.36,0,0,1-.22.35c-.74-.06-1.22-.06-1.51-.06a.35.35,0,0,0-.36.36,8.71,8.71,0,0,1,1.64,4.49c0,2.66-1.83,3.76-4,3.76H4.37c-2.32,0-2.63.06-2.8,1.22l-.09.71a.58.58,0,0,1-.81-.07c.07-1,.1-1.89.1-3s0-2.12-.1-3a.56.56,0,0,1,.81-.07l.09.61c.2,1.19.48,1.22,2.8,1.22H9.15c1.83,0,3.18-.83,3.18-3a3.5,3.5,0,0,0-1.12-2.73,2.71,2.71,0,0,0-1.93-.48H4.37c-2.32,0-2.6.06-2.8,1.22l-.09.58a.57.57,0,0,1-.81-.07c.07-.86.1-1.79.1-2.92s0-2.12-.1-3a.58.58,0,0,1,.81-.06l.09.67c.17,1.19.48,1.22,2.8,1.22Z"/><path d="M12.07,304.7c0-.55-.06-.55-.93-.55H4.37c-2.32,0-2.7.07-2.8,1.23l-.09,1.15a.58.58,0,0,1-.81-.06c.07-1.45.1-2.38.1-3.5s0-2.12-.1-3.09a.57.57,0,0,1,.81-.06l.09.74c.17,1.19.48,1.22,2.8,1.22h6.77c.87,0,.93,0,.93-.64V300a.45.45,0,0,1,.61-.09l.68,1.38a.74.74,0,0,0,.64.48,14.38,14.38,0,0,1,5.65,1,6.34,6.34,0,0,1,4.08,5.78c0,1.71-.77,3.15-1.92,3.15a1.23,1.23,0,0,1-1.16-1.22.91.91,0,0,1,.39-.77,3.61,3.61,0,0,0,1.41-2.57,2.48,2.48,0,0,0-1.77-2.28,17,17,0,0,0-5.43-.71h-.93c-.86,0-.89,0-.89.55v3.66a1,1,0,0,1-1.36-.22Z"/><path d="M7.23,322.2a6.56,6.56,0,0,1-6.91-6.77,6.35,6.35,0,0,1,6.62-6.59,6.75,6.75,0,0,1,6.93,6.84A6.41,6.41,0,0,1,7.23,322.2Zm5.68-6.9c0-2.12-2-3.7-5.56-3.7-2.92,0-6.07,1.32-6.07,4.15s3,3.69,5.43,3.69C9.44,319.44,12.91,318.35,12.91,315.3Z"/><path d="M10,326.16c1.25,0,1.41,0,2-.87l.19-.29a.44.44,0,0,1,.58,0,25.16,25.16,0,0,0,1.57,3.24c0,.16-.09.26-.22.26H12.23c-.16,0-.25,0-.28.1.93,1.12,1.92,2.34,1.92,3.53a1.33,1.33,0,0,1-1.28,1.45,1.43,1.43,0,0,1-1.48-1.39,1.2,1.2,0,0,1,.23-.7,2.62,2.62,0,0,0,.51-1.42,1.43,1.43,0,0,0-.64-1.15,4.91,4.91,0,0,0-2.48-.42H4.37c-2.32,0-2.7.07-2.8,1.29L1.48,331a.57.57,0,0,1-.81-.06c.07-1.51.1-2.44.1-3.57s0-2.12-.1-2.95a.57.57,0,0,1,.81-.07l.09.61c.2,1.19.48,1.23,2.8,1.23Z"/><path d="M19.75,347.16a13.83,13.83,0,0,1,2.73,8.67,24.57,24.57,0,0,1-.77,5.68,2.41,2.41,0,0,0-.13.9c-.74,0-2.76.2-4.72.45a.66.66,0,0,1-.06-.86c2.18-.49,4.68-1.93,4.68-6.59,0-4.91-3.11-9.09-9.76-9.09s-10.47,4.27-10.47,9.54a6.84,6.84,0,0,0,4.6,6.71.69.69,0,0,1-.13.84,12.2,12.2,0,0,1-4.4-1.54A7,7,0,0,0,1,360.74a18.74,18.74,0,0,1-.74-5.07,14,14,0,0,1,2.15-8,10.34,10.34,0,0,1,8.83-4.56A10.67,10.67,0,0,1,19.75,347.16Z"/><path d="M5.49,368.27c-2.21,0-3.69.54-3.69,3a4.17,4.17,0,0,0,1,2.6,2.25,2.25,0,0,0,1.87.64H9.89c2.09,0,2.15-.22,2.54-1.18l.16-.42a.44.44,0,0,1,.71,0,12.83,12.83,0,0,0,.57,3.76.32.32,0,0,1-.22.29c-.61-.07-1.61-.1-2.8-.1H5.46c-2.54,0-3.5.1-3.5,1a5.87,5.87,0,0,0,.16,1.25c-.16.19-.8.22-.93,0A16.73,16.73,0,0,0,0,374.88a.48.48,0,0,1,.22-.39H1.54c.29,0,.45-.09.45-.28a8.43,8.43,0,0,1-1.67-4.44c0-2.82,1.42-3.88,4-3.88H9.7c2,0,2.31,0,2.73-1l.16-.39a.49.49,0,0,1,.71.06,11.54,11.54,0,0,0,.57,3.44c0,.19-.09.29-.22.32a26,26,0,0,0-2.8-.09Z"/><path d="M4.37,384.49c-2.32,0-2.63.06-2.8,1.22l-.09.77a.57.57,0,0,1-.81-.07c.07-1.06.1-2,.1-3.11s0-2.13-.1-3.09a.57.57,0,0,1,.81-.06l.09.74c.17,1.19.48,1.22,2.8,1.22H18.88c1.9,0,2.09,0,2.67-1l.19-.32a.49.49,0,0,1,.64,0,23.45,23.45,0,0,0,1.35,3.47.34.34,0,0,1-.19.32c-1,0-2.57-.09-4-.09Z"/><path d="M12.07,392.67c0-.54-.09-.57-.77-.57h-6c-1.86,0-3.56.22-3.56,2.34a2.64,2.64,0,0,0,.15.87c.1.28.46.7.46.8,0,.26-.36.39-.55.32a4.46,4.46,0,0,1-1.48-3.37c0-2.76,1.54-3.34,3.47-3.34h7.35c.87,0,.93,0,.93-.67v-.9a.53.53,0,0,1,.68-.1,6.33,6.33,0,0,0,1,2.05,7.76,7.76,0,0,0,1.89,1.35c.06.16.06.55-.16.68H14c-.57,0-.6,0-.6.58v3.56a1,1,0,0,1-1.36,0Z"/><path d="M5.49,401.54c-2.21,0-3.69.54-3.69,3a4.22,4.22,0,0,0,1,2.61,2.28,2.28,0,0,0,1.87.64H9.89c2.09,0,2.15-.23,2.54-1.19l.16-.42a.44.44,0,0,1,.71,0,12.81,12.81,0,0,0,.57,3.75c0,.16-.09.26-.22.29-.61-.06-1.61-.1-2.8-.1H5.46c-2.54,0-3.5.1-3.5,1a5.87,5.87,0,0,0,.16,1.25c-.16.2-.8.23-.93,0A16.84,16.84,0,0,0,0,408.15a.45.45,0,0,1,.22-.38H1.54c.29,0,.45-.1.45-.29a8.39,8.39,0,0,1-1.67-4.43c0-2.83,1.42-3.89,4-3.89H9.7c2,0,2.31,0,2.73-1l.16-.39a.48.48,0,0,1,.71.07,11.52,11.52,0,0,0,.57,3.43c0,.2-.09.29-.22.32a26,26,0,0,0-2.8-.09Z"/><path d="M10,415.7c1.25,0,1.41,0,2-.87l.19-.28a.44.44,0,0,1,.58,0,25.16,25.16,0,0,0,1.57,3.24c0,.16-.09.26-.22.26H12.23c-.16,0-.25,0-.28.09.93,1.13,1.92,2.35,1.92,3.54a1.32,1.32,0,0,1-1.28,1.44,1.43,1.43,0,0,1-1.48-1.38,1.2,1.2,0,0,1,.23-.7,2.65,2.65,0,0,0,.51-1.42,1.45,1.45,0,0,0-.64-1.16,4.92,4.92,0,0,0-2.48-.41H4.37c-2.32,0-2.7.06-2.8,1.28l-.09,1.16a.57.57,0,0,1-.81-.07c.07-1.51.1-2.44.1-3.56s0-2.12-.1-3a.58.58,0,0,1,.81-.06l.09.61c.2,1.19.48,1.22,2.8,1.22Z"/><path d="M9,426.76c0-.84-.06-.87-.87-.87-3.24,0-6,1.9-6,5.33a3.48,3.48,0,0,0,1.57,3,.41.41,0,0,1-.38.57,5.62,5.62,0,0,1-3-5,5.77,5.77,0,0,1,2.12-4.66,6.83,6.83,0,0,1,4.18-1.34c4,0,7.25,2.6,7.25,6.45,0,2.76-1.89,4.56-3.82,4.56a1.86,1.86,0,0,1-.83-.13C9,434.5,9,434.05,9,432.7Zm1,2c0,2.38.12,3.08.32,3.34.06.09.19.19.61.19.9,0,2-.61,2-2.47s-1.73-3.53-2.79-3.57c-.07,0-.16,0-.16.23Z"/><path d="M7.42,450.94c.16.48.45.51.93.55l1.48,0c1.19,0,2.79-.36,2.79-2.35,0-.9-.45-2-1.44-2.05-.52,0-.9-.06-1.1-.32A3.5,3.5,0,0,1,9.47,445a.41.41,0,0,1,.45-.45c1.67,0,3.95,3.63,3.95,6s-1.34,3.44-3.75,3.34l-5.59-.19c-1.48-.07-2.79.22-2.79,1.48a1.81,1.81,0,0,0,.19.8c.09.16.22.32.22.42s-.19.22-.41.22a3.36,3.36,0,0,1-1.42-2.7,2.54,2.54,0,0,1,1-2.08c.19-.13.45-.33.45-.52A5.05,5.05,0,0,0,1.13,450a4.72,4.72,0,0,1-.81-2.31,3.33,3.33,0,0,1,.74-2.25,3,3,0,0,1,2.25-1c1.25,0,2,.61,2.73,2.67Zm-5.65-2a3.65,3.65,0,0,0,.8,2,1.91,1.91,0,0,0,1.51.41l1.89.07c.36,0,.42-.13.42-.32a6.29,6.29,0,0,0-.32-1.32c-.64-1.89-1.13-2.82-2.38-2.82A1.93,1.93,0,0,0,1.77,449Z"/><path d="M10,459.13c1.25,0,1.41,0,2-.87l.19-.29a.45.45,0,0,1,.58,0,18,18,0,0,0,1.57,3.21.36.36,0,0,1-.22.35c-.74-.06-1.22-.06-1.51-.06a.34.34,0,0,0-.36.35,8.77,8.77,0,0,1,1.64,4.5c0,2.66-1.83,3.75-4,3.75H4.37c-2.32,0-2.63.07-2.8,1.22l-.09.71A.57.57,0,0,1,.67,472c.07-1,.1-1.9.1-3s0-2.12-.1-3a.57.57,0,0,1,.81-.06l.09.61c.2,1.18.48,1.22,2.8,1.22H9.15c1.83,0,3.18-.84,3.18-3A3.5,3.5,0,0,0,11.21,462a2.71,2.71,0,0,0-1.93-.48H4.37c-2.32,0-2.6.06-2.8,1.22l-.09.58a.57.57,0,0,1-.81-.07c.07-.87.1-1.8.1-2.92s0-2.12-.1-3a.58.58,0,0,1,.81-.07l.09.68c.17,1.19.48,1.22,2.8,1.22Z"/><path d="M5.46,486.14c-2.54,0-3.72,0-3.72.93a5.21,5.21,0,0,0,.31,1.38c-.06.23-.86.26-1,0a25.11,25.11,0,0,0-1-4.24c0-.19.1-.35.26-.35H.8a3.34,3.34,0,0,0,1-.07v-.13a6.63,6.63,0,0,1-1.48-4,5.9,5.9,0,0,1,6.17-5.94c4.49,0,7.38,3.4,7.38,7.77a6.51,6.51,0,0,1-.29,2.15c0,.16.2.19.45.19h4.85c1.9,0,2.09,0,2.67-1l.19-.32a.49.49,0,0,1,.64,0,23,23,0,0,0,1.35,3.46.37.37,0,0,1-.19.33c-1,0-2.57-.1-4-.1Zm4.82-2.38a1.9,1.9,0,0,0,1.25-.35,3.37,3.37,0,0,0,1.35-2.7c0-2.92-2.54-4.43-5.33-4.43s-5.69,1.64-5.69,4.79a4,4,0,0,0,.9,2.47,2,2,0,0,0,1.19.22Z"/><path d="M8.22,555c.71-.23.8-.35.8-1.32v-4.85c0-.8-.09-1-.77-1.22L4.88,546.5a12.45,12.45,0,0,0-2.66-.71c-.39,0-.58.16-.65.93l-.09,1.06a.52.52,0,0,1-.81-.06c.07-.84.07-1.83.1-3.34,0-1.06-.06-2.22-.1-3.09a.65.65,0,0,1,.81-.06l.09,1.06a2.15,2.15,0,0,0,1.58,1.93c1.48.58,3.56,1.47,7.16,2.82L19,550.32a4.71,4.71,0,0,0,2.28.55,3.59,3.59,0,0,0,1.22,1.67.47.47,0,0,1-.29.48c-1.41.41-2.89.93-4.3,1.41L5,558.83c-2.76.93-3.24,1.35-3.41,2.73l-.09.87a.65.65,0,0,1-.81,0c.07-1.32.1-2.44.1-3.89s-.06-2.76-.1-3.69a.55.55,0,0,1,.81-.07l.09.94c.07.67.26,1.12.58,1.12a6.5,6.5,0,0,0,1.7-.42Zm2.86-6.36c-.74-.26-.77-.22-.77.67v3.95c0,.93.13,1,1,.71l5.24-1.73c.77-.26,1.64-.55,2-.74v-.06a17.06,17.06,0,0,0-1.89-.78Z"/><path d="M10,564.77c1.25,0,1.41,0,2-.87l.19-.29a.45.45,0,0,1,.58,0,25.16,25.16,0,0,0,1.57,3.24c0,.16-.09.26-.22.26H12.23c-.16,0-.25,0-.28.09.93,1.13,1.92,2.35,1.92,3.54a1.32,1.32,0,0,1-1.28,1.44,1.42,1.42,0,0,1-1.48-1.38,1.2,1.2,0,0,1,.23-.7,2.65,2.65,0,0,0,.51-1.42,1.42,1.42,0,0,0-.64-1.15,4.8,4.8,0,0,0-2.48-.42H4.37c-2.32,0-2.7.06-2.8,1.28l-.09,1.16a.57.57,0,0,1-.81-.07c.07-1.5.1-2.44.1-3.56s0-2.12-.1-3a.58.58,0,0,1,.81-.06l.09.61c.2,1.19.48,1.22,2.8,1.22Z"/><path d="M12.07,578c0-.55-.09-.58-.77-.58h-6c-1.86,0-3.56.22-3.56,2.34a2.6,2.6,0,0,0,.15.87c.1.29.46.71.46.8,0,.26-.36.39-.55.33a4.48,4.48,0,0,1-1.48-3.38c0-2.76,1.54-3.34,3.47-3.34h7.35c.87,0,.93,0,.93-.67v-.9a.54.54,0,0,1,.68-.1,6.29,6.29,0,0,0,1,2.06,7.76,7.76,0,0,0,1.89,1.35c.06.16.06.54-.16.67H14c-.57,0-.6,0-.6.58v3.56a1,1,0,0,1-1.36,0Z"/><path d="M13.3,590.55a7.53,7.53,0,0,1-2.61.52.56.56,0,0,1-.09-.77,3.14,3.14,0,0,0,2.34-2.83,1.89,1.89,0,0,0-2-2.05c-1.31,0-2,1.34-2.66,2.47-1,1.7-2.06,3.27-4.34,3.27-2.44,0-3.66-2.24-3.66-4.62a5.33,5.33,0,0,1,1-3.43,9.36,9.36,0,0,1,3.25-.39.55.55,0,0,1,0,.74c-1.77.54-3.31,1.57-3.31,3.4A2,2,0,0,0,3.31,589c1.47,0,2.28-1.28,2.95-2.47,1.06-1.86,2.19-3.18,4-3.18,2.35,0,3.66,1.93,3.66,4.37A5.73,5.73,0,0,1,13.3,590.55Z"/><path d="M9.83,73.37c0-1-.07-1-.95-1-3.56,0-6.59,2.23-6.59,6.27A4.15,4.15,0,0,0,4,82.09a.5.5,0,0,1-.42.68A6.69,6.69,0,0,1,.32,76.84a7,7,0,0,1,2.32-5.47,7.17,7.17,0,0,1,4.59-1.58c4.33,0,8,3,8,7.58,0,3.24-2.07,5.36-4.18,5.36a2.13,2.13,0,0,1-.92-.15c-.21-.12-.25-.65-.25-2.23Zm1.06,2.34c0,2.79.14,3.62.35,3.93.07.11.21.22.67.22,1,0,2.22-.72,2.22-2.9s-1.91-4.15-3.06-4.19c-.07,0-.18,0-.18.26Z"/><path d="M14.62,93.06a7.67,7.67,0,0,1-2.84.64.66.66,0,0,1-.12-.88c1.53-.66,2.54-1.57,2.51-3.08A2.14,2.14,0,0,0,12,87.41c-1.44,0-2.19,1.7-2.87,3-1,2-2.19,3.81-4.69,3.85-2.68,0-4.06-2.63-4.11-5.36A6,6,0,0,1,1.3,85a10.08,10.08,0,0,1,3.55-.5.64.64,0,0,1,.05.85c-1.93.66-3.6,1.76-3.56,3.87a2.33,2.33,0,0,0,2.3,2.55c1.62,0,2.47-1.63,3.19-3C8,86.63,9.16,85.09,11.1,85.06c2.57,0,4.05,2.15,4.1,5A5.67,5.67,0,0,1,14.62,93.06Z"/><path d="M4.76,101.15c-2.54,0-2.89.08-3.07,1.35l-.1.85a.61.61,0,0,1-.88-.07c.07-1.17.1-2.2.1-3.44s0-2.34-.1-3.41a.61.61,0,0,1,.88-.07l.1.82c.18,1.31.53,1.35,3.07,1.35h13.6c2.08,0,2.29,0,2.92-1.11l.21-.35a.53.53,0,0,1,.71,0,24.62,24.62,0,0,0,1.48,3.83.38.38,0,0,1-.22.36c-1.05,0-2.81-.11-4.36-.11Z"/><path d="M10.92,108c1.38,0,1.55,0,2.19-1l.21-.32c.14-.14.53-.14.63,0a25.71,25.71,0,0,0,1.73,3.66.33.33,0,0,1-.21.35c-1.23-.07-2.93-.14-4.37-.14H4.76c-2.54,0-2.89.07-3.07,1.35l-.1.74a.61.61,0,0,1-.88-.07c.07-1.06.1-2.09.1-3.34s0-2.34-.1-3.33a.62.62,0,0,1,.88-.08l.1.75C1.87,108,2.22,108,4.76,108Zm9.65,2.87a1.79,1.79,0,0,1-.07-3.58,1.79,1.79,0,0,1,1.83,1.88A1.68,1.68,0,0,1,20.57,110.9Z"/><path d="M13.21,120.5c0-.61-.1-.65-.84-.65H5.78c-2,0-3.91.26-3.91,2.65a2.76,2.76,0,0,0,.18,1c.1.32.49.8.49.9,0,.3-.39.44-.6.37a5.1,5.1,0,0,1-1.62-3.81c0-3.12,1.69-3.77,3.8-3.77h8.07c1,0,1,0,1-.76v-1a.59.59,0,0,1,.74-.11,7.32,7.32,0,0,0,1.1,2.33,8.67,8.67,0,0,0,2.07,1.52.71.71,0,0,1-.17.76H15.36c-.63,0-.67,0-.67.65v4a1.09,1.09,0,0,1-1.48,0Z"/><path d="M9.83,130c0-1-.07-1-.95-1-3.56,0-6.59,2.22-6.59,6.26A4.15,4.15,0,0,0,4,138.68a.5.5,0,0,1-.42.68,6.7,6.7,0,0,1-3.28-5.93A7,7,0,0,1,2.64,128a7.17,7.17,0,0,1,4.59-1.58c4.33,0,8,3.06,8,7.58,0,3.25-2.07,5.36-4.18,5.36a2.13,2.13,0,0,1-.92-.15c-.21-.11-.25-.64-.25-2.23Zm1.06,2.34c0,2.79.14,3.62.35,3.92.07.12.21.23.67.23,1,0,2.22-.71,2.22-2.91s-1.91-4.15-3.06-4.18c-.07,0-.18,0-.18.26Z"/><path d="M12.05,500.76c0-.55-.09-.58-.76-.58h-6c-1.85,0-3.54.22-3.54,2.33a2.31,2.31,0,0,0,.16.86c.09.29.44.71.44.8,0,.26-.35.39-.54.32a4.41,4.41,0,0,1-1.47-3.35c0-2.75,1.53-3.32,3.45-3.32h7.32c.86,0,.92,0,.92-.67v-.9a.53.53,0,0,1,.67-.09,6.61,6.61,0,0,0,1,2,7.94,7.94,0,0,0,1.89,1.34c.06.16.06.55-.16.67H14c-.57,0-.61,0-.61.58v3.54a1,1,0,0,1-1.34,0Z"/><path d="M18.82,507.62c1.89,0,2.08,0,2.66-1l.19-.32a.47.47,0,0,1,.63,0,22.9,22.9,0,0,0,1.35,3.45.36.36,0,0,1-.19.32c-1,0-2.56-.09-4-.09h-6.7c-.29,0-.55,0-.61.12a7.3,7.3,0,0,1,1.66,4.32c0,3-1.88,4.12-4.12,4.12H4.39c-2.3,0-2.66.06-2.78,1.21l-.1.86a.56.56,0,0,1-.8-.06c.07-1.15.1-2.08.1-3.19s0-2.11-.1-3a.57.57,0,0,1,.8-.06l.1.64c.19,1.18.48,1.21,2.78,1.21H9c2.05,0,3.42-1,3.42-3a3.8,3.8,0,0,0-.86-2.49c-.48-.58-.64-.67-1.76-.67H4.39c-2.3,0-2.62.06-2.78,1.21l-.1.67c-.13.23-.7.16-.8-.06.07-1,.1-1.89.1-3s0-2.11-.1-3.14a.57.57,0,0,1,.8-.06l.1.8c.12,1.18.48,1.21,2.78,1.21Z"/><path d="M9,525.42c0-.83-.07-.87-.87-.87-3.22,0-6,1.89-6,5.31a3.43,3.43,0,0,0,1.57,2.93.43.43,0,0,1-.39.58,5.58,5.58,0,0,1-3-5,5.75,5.75,0,0,1,2.11-4.63,6.78,6.78,0,0,1,4.15-1.34c3.93,0,7.22,2.59,7.22,6.42,0,2.75-1.88,4.54-3.8,4.54a2,2,0,0,1-.83-.13c-.19-.1-.22-.54-.22-1.89Zm.95,2c0,2.36.13,3.06.32,3.32.07.09.19.19.61.19.89,0,2-.61,2-2.46s-1.72-3.51-2.78-3.55c-.06,0-.16,0-.16.23Z"/></svg>