<svg xmlns="http://www.w3.org/2000/svg" viewBox="0 0 129.3 22.07"><defs><style>.cls-1{fill:#231815;}</style></defs><title>logo-black</title><g id="圖層_5" data-name="圖層 5"><path class="cls-1" d="M13.52,10.42a6,6,0,0,0-.08-1.34c-.1,0-.35,1-.39,1.16a3.4,3.4,0,0,1-.49,1.17.2.2,0,0,1-.17.09c-.47-.05-1.07-1.1-1.3-1.82l.16-.24a17,17,0,0,0,1.31-2.86s.1-.18.17-.2.43,0,.48-.19-.28-.39-.53-.57A6.67,6.67,0,0,0,11.47,5c-.17,0-.18,0-.2.07s.16.4.1.69a9.23,9.23,0,0,1-.87,2.73A25.73,25.73,0,0,1,10,3.73h3.39c.13,0,.19,0,.23-.1s0-.12-.06-.19a9.06,9.06,0,0,0-1.09-.91.16.16,0,0,0-.23,0l-.57.71a.27.27,0,0,1-.24.11H10V1.83c0-.4-.05-.52.27-.67.16-.07.29-.15.29-.25S10.2.58,9.94.5,9.13.28,8.72.18c-.13,0-.19,0-.18.12.05.25.26.52.24.79l0,2.27H6.47a13.13,13.13,0,0,0-1.36-.71c-.07,0-.1,0-.1.11V5.38C5,8.86,4.9,11,4.09,12.52a6.9,6.9,0,0,1-1.16,1.4,1.81,1.81,0,0,0,1-.44,5.69,5.69,0,0,0,1.63-2.31c.11-.07.53.24.64.44,0,0-.1.66.24.66,1.35,0,1.74-1.32,1.84-1.86A35.93,35.93,0,0,0,8.35,6.5l.17-.11a.67.67,0,0,1,.55,0,20.53,20.53,0,0,0,.71,3.34A15.71,15.71,0,0,1,8,12.51a6.88,6.88,0,0,1-1.27,1.25s.06.06.12,0a9.54,9.54,0,0,0,3.45-2.93A10.81,10.81,0,0,0,12,12.94c.53.52.92.72,1.17.72a.68.68,0,0,0,.54-.25c.11-.17,0-.47-.21-.75C13.48,12.16,13.53,11.64,13.52,10.42Zm-6.32,0c-.14.62-.45.57-.84.57l-.68,0v-.08a32.43,32.43,0,0,0,.58-4.45h.85a.14.14,0,0,1,.16.14A25.73,25.73,0,0,1,7.2,10.39ZM8.3,5.21a.15.15,0,0,0-.16,0,4.79,4.79,0,0,0-.57.66L7.41,6H6.28V3.73H8.83c0,.74.08,1.37.15,2Z"/><path class="cls-1" d="M27.15,7a.18.18,0,0,0-.22,0l-.35.39a.56.56,0,0,1-.49.24H23.72a7.22,7.22,0,0,0-1.42-.7s-.07,0-.06.12V13.8c0,.4.37.19.52.13a3.67,3.67,0,0,0,.75-.44.24.24,0,0,0,.14-.21v-.51H26.5v.83c0,.4.36.19.51.13l.75-.33a.24.24,0,0,0,.14-.21V8.62c0-.09,0-.13.13-.17s.54-.17.55-.27,0-.19-.13-.3A3.87,3.87,0,0,0,27.15,7Zm-.65,5.44H23.64V8h2.67a.19.19,0,0,1,.19.2Z"/><path class="cls-1" d="M82.26,2l.92-.11h2.14c.11,0,.19,0,.21-.11a.25.25,0,0,0-.07-.28,3.49,3.49,0,0,0-.83-.95c-.12-.09-.22-.08-.29.06a6.08,6.08,0,0,0-.57.79.27.27,0,0,1-.21.11h-.38l-1-.1q-.14,0-.12.06c0,.17.07.33.11.49S82.2,2,82.26,2Z"/><path class="cls-1" d="M72.38,4.21a8.2,8.2,0,0,0,3-2.91.21.21,0,0,1,.14-.07c.18,0,.28-.05.31-.16S75.8.89,75.65.79a7,7,0,0,0-1.3-.48c-.06,0-.08,0-.08.07a.66.66,0,0,1-.06.2,8.91,8.91,0,0,1-1.93,3.51.09.09,0,0,0,0,.12S72.32,4.23,72.38,4.21Z"/><path class="cls-1" d="M80.37,1.33c.35.49.47.88.93.74a.58.58,0,0,0,.39-.44.7.7,0,0,0-.17-.72A3.84,3.84,0,0,0,79.63.25c-.06,0,.07.15.11.19C80,.8,80.12,1,80.37,1.33Z"/><path class="cls-1" d="M.53,7.3l.58-.08H3.92c.09,0,.13,0,.16-.07A.12.12,0,0,0,4,7a2.46,2.46,0,0,0-.75-.72c-.08,0-.12,0-.17,0l-.25.41a.18.18,0,0,1-.16.07H1.11L.32,6.71c-.09,0-.12,0-.11,0l.21.52C.43,7.32.47,7.33.53,7.3Z"/><path class="cls-1" d="M3.25,12.84a2.14,2.14,0,0,0,.55-.41.36.36,0,0,0,.1-.22V9.53c0-.06,0-.2.1-.23s.4-.19.41-.27,0-.14-.1-.21a2.78,2.78,0,0,0-1-.64.12.12,0,0,0-.17,0,4.3,4.3,0,0,1-.44.56H1.44A6.35,6.35,0,0,0,.29,8s-.06,0,0,.09v5.3c0,.3.38.14.49.1a2.63,2.63,0,0,0,.51-.29A.33.33,0,0,0,1.39,13V11.88H2.86v.86C2.86,13,3.14,12.88,3.25,12.84ZM2.86,11.6H1.39V9H2.72a.14.14,0,0,1,.14.15Z"/><path class="cls-1" d="M.53,1.76l.58-.08H4.17c.09,0,.13,0,.16-.07a.12.12,0,0,0,0-.14A2.62,2.62,0,0,0,3.53.75a.1.1,0,0,0-.16,0l-.26.42A.18.18,0,0,1,3,1.25H1.11L.32,1.18c-.09,0-.12,0-.11,0l.21.51C.43,1.78.47,1.8.53,1.76Z"/><path class="cls-1" d="M18.55,6.19a3.67,3.67,0,0,0,.75-.44.24.24,0,0,0,.14-.21V5.25h4.72V6c0,.39.37.18.52.12.36-.14.75-.32.75-.32a.24.24,0,0,0,.13-.21V2.32c0-.09.05-.13.14-.18s.53-.16.55-.27,0-.19-.14-.29A3.83,3.83,0,0,0,24.82.65a.18.18,0,0,0-.22,0l-.35.39c-.13.14-.24.25-.39.25H19.51A7.4,7.4,0,0,0,18.1.61c-.05,0-.08,0-.06.11V6.07C18,6.46,18.41,6.25,18.55,6.19Zm.89-4.5H24a.19.19,0,0,1,.19.2v3H19.44Z"/><path class="cls-1" d="M11.4,1.5c.35.49.47.88.92.74a.58.58,0,0,0,.4-.44.7.7,0,0,0-.17-.72A4,4,0,0,0,10.66.42c-.06,0,.07.15.11.19C11.06,1,11.14,1.15,11.4,1.5Z"/><path class="cls-1" d="M58.28,1.79l.83-.12h2.82v.7c0,.36.34.17.48.12a4.15,4.15,0,0,0,.68-.41s.13-.09.13-.19V1.67h2.46v.72c0,.38.35.18.49.13a3.85,3.85,0,0,0,.71-.42S67,2,67,1.9V1.68h3.59a.27.27,0,0,0,.24-.1c0-.06,0-.12-.06-.2A3.8,3.8,0,0,0,69.62.3a.16.16,0,0,0-.24,0c-.25.28-.48.56-.7.85a.26.26,0,0,1-.22.12H67V1.18c0-.08,0-.11.12-.17s.23-.12.23-.22-.11-.21-.28-.28c-.4-.16-.89-.29-1.43-.45-.07,0-.1,0-.08.06l.11.45v.72H63.22V1.14c0-.08,0-.11.12-.16s.22-.12.22-.22-.11-.2-.27-.26A14.22,14.22,0,0,0,61.91.06c-.06,0-.09,0-.08.06l.11.43v.74H59.11l-1-.1c-.12,0-.17,0-.16.06s.09.34.14.5S58.19,1.83,58.28,1.79Z"/><path class="cls-1" d="M.33,3.69.9,3.61H4.4c.09,0,.13,0,.16-.07a.12.12,0,0,0,0-.14,2.49,2.49,0,0,0-.76-.72.1.1,0,0,0-.16,0l-.26.41a.18.18,0,0,1-.16.07H.9L.11,3.1c-.09,0-.12,0-.11,0l.22.52S.27,3.72.33,3.69Z"/><path class="cls-1" d="M3.29,4.45c-.08,0-.12,0-.17,0l-.25.41A.18.18,0,0,1,2.71,5H1.11L.32,4.87c-.09,0-.12,0-.11,0l.21.52c0,.05,0,.06.11,0l.58-.08H3.92c.09,0,.13,0,.16-.07a.12.12,0,0,0,0-.14A2.46,2.46,0,0,0,3.29,4.45Z"/><path class="cls-1" d="M20.16,7a.18.18,0,0,0-.22,0,5,5,0,0,1-.6.63H17a7.22,7.22,0,0,0-1.42-.7s-.07,0-.06.12V13.8c0,.4.37.19.52.13a3.67,3.67,0,0,0,.75-.44.24.24,0,0,0,.13-.21v-.51H19.5v.83c0,.4.37.19.52.13l.75-.33a.24.24,0,0,0,.14-.21V8.62c0-.09,0-.13.13-.17s.53-.17.55-.27,0-.19-.13-.3A4,4,0,0,0,20.16,7Zm-.66,5.44H16.89V8h2.42a.19.19,0,0,1,.19.2Z"/><path class="cls-1" d="M110.81,9.59a9,9,0,0,1-1,3.27.1.1,0,0,0,0,.13s.07,0,.13,0a7.35,7.35,0,0,0,2.21-2.45h0l.06-.09a.22.22,0,0,1,.13-.12c.19,0,.47,0,.53-.21s-.31-.43-.59-.63a7,7,0,0,0-1.33-.7c-.18,0-.2,0-.22.08s.18.43.11.75Z"/><path class="cls-1" d="M113.39,12.1a.21.21,0,0,0-.29,0,11.62,11.62,0,0,0-.77,1,.32.32,0,0,1-.26.13h-3.5V8.57h5a.26.26,0,0,0,.25-.11.22.22,0,0,0-.06-.2,4.63,4.63,0,0,0-1.3-1.19.18.18,0,0,0-.27,0c-.27.31-.53.63-.77,1a.28.28,0,0,1-.24.13h-2.62V5.74h2.07c.13,0,.21,0,.25-.1a.21.21,0,0,0-.06-.2,4.13,4.13,0,0,0-1.18-1.1.17.17,0,0,0-.25,0c-.26.29-.5.58-.72.88,0,.07-.11.1-.23.11H106l-1-.1c-.12,0-.18,0-.16.06a4,4,0,0,0,.15.52c0,.07.06.08.16,0l.85-.13h1.12V8.18h-3.89l-1-.1c-.13,0-.18,0-.16.05a3.57,3.57,0,0,0,.14.52c0,.07.06.08.16,0l.85-.13h3.89v4.68h-4.7l-1-.1c-.13,0-.18,0-.16,0a3.55,3.55,0,0,0,.15.52c0,.07.06.08.15,0l.85-.13h12.12a.29.29,0,0,0,.25-.1.23.23,0,0,0-.06-.21A4.47,4.47,0,0,0,113.39,12.1Z"/><path class="cls-1" d="M104.94,12.83h0a.71.71,0,0,0,.62-.37,1.23,1.23,0,0,0,.16-.85,3.42,3.42,0,0,0-2.09-2.41h0a.09.09,0,0,0-.14,0,.12.12,0,0,0,0,.16,3.24,3.24,0,0,1,.73,2.4C104.19,12.44,104.42,12.78,104.94,12.83Z"/><path class="cls-1" d="M98.13,12.21a.19.19,0,0,0-.26,0,8.49,8.49,0,0,0-.71.9.38.38,0,0,1-.24.11H94v-2h2.62a.27.27,0,0,0,.24-.09c0-.06,0-.13-.06-.2a3.93,3.93,0,0,0-1.08-1c-.1-.07-.18-.06-.24,0-.24.27-.46.54-.68.84a.25.25,0,0,1-.23.09H94V9.56c0-.08,0-.11.12-.16s.24-.13.24-.24-.12-.2-.29-.28c-.41-.16-1-.31-1.54-.47-.06,0-.1,0-.08.05l.2.49v1.88H91.13l-1-.09c-.12,0-.17,0-.16,0a3.8,3.8,0,0,0,.15.51c0,.07.06.08.15,0l.83-.13h1.51v2H88.48l-1,0c-.1,0-.14,0-.13,0l.11.41c0,.06.06.07.13,0l.86-.07H99.16a.25.25,0,0,0,.24-.1s0-.12-.06-.19A4,4,0,0,0,98.13,12.21Z"/><path class="cls-1" d="M95.79,8.06l-.1-.12h3.92a.25.25,0,0,0,.24-.1s0-.12-.06-.19a4.09,4.09,0,0,0-1.21-1.13.17.17,0,0,0-.25,0,7.47,7.47,0,0,0-.72.9.34.34,0,0,1-.24.11h-.89V2.75h2.73c.13,0,.21,0,.24-.1s0-.12,0-.19a4,4,0,0,0-1.16-1.08.16.16,0,0,0-.24,0,11,11,0,0,0-.7.86.3.3,0,0,1-.23.11h-.59V1.2c0-.08,0-.11.12-.17s.24-.12.24-.23-.12-.21-.29-.28c-.41-.17-.94-.3-1.49-.46C95,0,95,.09,95,.12l.14.46V2.37H91.34V1.14c0-.08,0-.11.13-.16s.24-.13.24-.24-.12-.21-.29-.28C91,.29,90.48.16,89.93,0c-.07,0-.1,0-.09.06L90,.52V2.37H88.54l-1-.1q-.18,0-.15.06a3.8,3.8,0,0,0,.14.51c0,.06.06.08.15,0l.84-.13H90V7.56H88.09l-1-.1c-.12,0-.17,0-.15.06A3.8,3.8,0,0,0,87.1,8c0,.06.06.08.15,0l.84-.13H90a6.92,6.92,0,0,1-3.16,3.6c-.17.09-.24.16-.21.22s.06.08.16.05a8.16,8.16,0,0,0,2.69-1.3,6.6,6.6,0,0,0,2.09-2.57h3.81a8.41,8.41,0,0,0,2.32,3.2l.08,0a5.36,5.36,0,0,0,1.26.57c.15,0,.22,0,.23-.08a1.61,1.61,0,0,1,1-1.41c.09,0,.13-.09.12-.17s-.07-.06-.17-.06A5.53,5.53,0,0,1,95.79,8.06Zm-.67-.5H91.34V6.25h3.78Zm0-1.69H91.34V4.5h3.78Zm0-1.75H91.34V2.75h3.78Z"/><path class="cls-1" d="M119.92,3.87c-.12,0-.18,0-.16.06a3.8,3.8,0,0,0,.15.51c0,.07.06.08.15,0l.84-.13h3.8c.16,0,.26,0,.31-.13a.22.22,0,0,0-.07-.26,9,9,0,0,0-.94-.81.21.21,0,0,0-.31,0l-.4.52c-.07.07-.18.26-.32.26H120.9Z"/><path class="cls-1" d="M109.88,2.47A8.28,8.28,0,0,1,108.78,1c.16,0,.25-.07.28-.18s0-.22-.23-.31a9.19,9.19,0,0,0-1.5-.52c-.07,0-.11,0-.12,0a10,10,0,0,1-2.82,4.24,15.64,15.64,0,0,1-3.21,2.35c-.07,0-.1.08-.08.14s.06.08.15.06a14.2,14.2,0,0,0,7.29-5.66c1,2.66,2.57,4.47,4.74,5.24l.36.12c.12,0,.2,0,.23-.07a1.59,1.59,0,0,1,.3-.74,1.89,1.89,0,0,1,.74-.56c.08,0,.12-.09.11-.16S115,5,114.88,5A8.15,8.15,0,0,1,109.88,2.47Z"/><path class="cls-1" d="M84.91,4c-.12-.1-.22-.08-.29,0a7.83,7.83,0,0,0-.57.79.24.24,0,0,1-.21.12H82.33l-1-.1c-.1,0-.14,0-.13.06s.07.33.11.49,0,.07.12,0l.91-.11h.74v6.81c0,.22-.12.33-.36.32s-1.1,0-1.63-.06c-.06,0-.09,0-.1.06s0,.1.08.13c.71.28,1.31.58,1.33,1.23,0,.09,0,.14.15.14a1.79,1.79,0,0,0,1.67-.72,2.3,2.3,0,0,0,.2-1V5.35H85.6c.12,0,.19,0,.21-.11A.26.26,0,0,0,85.74,5,3.59,3.59,0,0,0,84.91,4Z"/><path class="cls-1" d="M129.13,3.45a12.9,12.9,0,0,1-4-.91A6.88,6.88,0,0,1,123,1.17.4.4,0,0,0,123.1,1c0-.1,0-.21-.17-.33a12.21,12.21,0,0,0-1.34-.7.1.1,0,0,0-.13.06,10.85,10.85,0,0,1-5.71,5c-.16.06-.25.11-.23.18s0,0,.14,0a13.94,13.94,0,0,0,1.77-.45v3h0V9c0,.38.35.18.49.13a3,3,0,0,0,.31-.15v4.87a.28.28,0,0,0,0,.13h0c0,.38.36.18.5.12l.71-.31a.24.24,0,0,0,.13-.21h5.56V14c0,.38.35.18.5.12l.72-.31a.24.24,0,0,0,.13-.21V11.52h0V10.41c0-.08,0-.13.13-.17s.51-.16.53-.26,0-.18-.13-.28a5.34,5.34,0,0,0-.68-.59l.14-.06c.35-.14.73-.32.73-.32a.23.23,0,0,0,.13-.2V7.37h0V6.25a.19.19,0,0,1,.13-.16c.17-.06.52-.16.53-.26s0-.18-.13-.28a3.69,3.69,0,0,0-1.25-.9.17.17,0,0,0-.21,0l-.34.38a.5.5,0,0,1-.46.23h-6.75a7.25,7.25,0,0,0-1.12-.57,15.9,15.9,0,0,0,2.77-1.48,25.32,25.32,0,0,0,2.07-1.95.24.24,0,0,1,.1-.08c.8,1.42,2.54,2.72,5.24,3.73.11,0,.3,0,.32-.1a1.51,1.51,0,0,1,1-1.14c.08,0,.12-.09.1-.16S129.23,3.47,129.13,3.45Zm-4,9.76h-5.55V11.64h5.55Zm0-2h-5.55v-.15h0V9.83H125a.19.19,0,0,1,.17.18Zm.67-5.59a.18.18,0,0,1,.18.19V7h0V8.13h-2.06a8.08,8.08,0,0,0,1.32-1.3h0c.15,0,.37,0,.41-.16s-.24-.35-.46-.5a7.72,7.72,0,0,0-.9-.5Zm-2.8,0h1c0,.12.1.33.1.54a.41.41,0,0,1,0,.11h0a5.09,5.09,0,0,1-.53,1.81H123ZM118.78,7h0V5.66h2.87V8.13h-2.87Zm-.14,1.75s.13-.09.13-.2H126v.38a1,1,0,0,0-.21-.09.16.16,0,0,0-.21,0l-.34.37a.57.57,0,0,1-.47.24h-5.09a6.66,6.66,0,0,0-1.17-.6Z"/><path class="cls-1" d="M119.33,5.78c-.06,0,0,.16.06.22.18.43.21.63.35,1,.2.57.21,1,.69,1a.62.62,0,0,0,.51-.31A.72.72,0,0,0,121,7,4.06,4.06,0,0,0,119.33,5.78Z"/><path class="cls-1" d="M56.33,12.07c-.2-.14-.35-.64-.36-1.5,0-.1,0-.54-.07-.54s-.11.27-.17.51a3.33,3.33,0,0,1-.6,1.55,12.71,12.71,0,0,1-3.51.11l-.14,0a.46.46,0,0,1-.32-.18.49.49,0,0,1-.07-.28V7.24A13,13,0,0,0,55.52,4a.16.16,0,0,1,.14-.05h0c.17,0,.4.06.47-.12s-.21-.42-.43-.62a3.88,3.88,0,0,0-.84-.63c-.15,0-.17,0-.2.05a2.58,2.58,0,0,1-.18.39,14.67,14.67,0,0,1-3.4,3.85V1.47c0-.09,0-.12.13-.17s.25-.13.25-.25-.12-.21-.3-.29c-.43-.17-1-.31-1.54-.48-.07,0-.1,0-.09.06l.14.49v1h0l0,10.19a1.89,1.89,0,0,0,.15.71,1.26,1.26,0,0,0,.72.6,7.51,7.51,0,0,0,2.37.27c.91,0,1.6,0,2.05-.06a3.76,3.76,0,0,0,1.27-.31.65.65,0,0,0,.46-.6A.64.64,0,0,0,56.33,12.07Z"/><path class="cls-1" d="M60.53,5.83a4.12,4.12,0,0,0,.21-.62h1v.73a.77.77,0,0,0,.07.36,3.14,3.14,0,0,0-1.3-.15s-.06,0-.06.07V7.36H60l-1-.1c-.1,0-.14,0-.13.06s.07.33.11.49.05.07.11,0L60,7.74h.42v.83c-.88,0-1.49,0-1.83,0-.08,0-.12,0-.11.1a3.89,3.89,0,0,0,.34,1.17A.21.21,0,0,0,59,10c.07,0,.12-.06.17-.17s.12-.11.34-.15a28.06,28.06,0,0,0,4.23-1.14c.1,0,.21-.09.2-.17s-.12,0-.25,0c-.62.07-1.29.14-2,.2V7.74h1.62a.21.21,0,0,0,.21-.11.28.28,0,0,0-.07-.28,2.83,2.83,0,0,0-.31-.46h.11a5,5,0,0,0,1.39-.15A.52.52,0,0,0,65,6.26a.59.59,0,0,0-.37-.5c-.09-.07-.13-.27-.11-.59,0-.07,0-.1-.07-.1s-.07,0-.1.08c-.14.4-.27.62-.38.66l-.49,0c-.4,0-.61,0-.62-.15V5.21h1a.21.21,0,0,0,.21-.11c0-.09,0-.18-.07-.29a2.17,2.17,0,0,0-.55-.7.16.16,0,0,0-.24,0q-.56.67-.66.69h-.79V4h1.7c.12,0,.19,0,.21-.11a.25.25,0,0,0-.07-.28,2.34,2.34,0,0,0-.54-.71.16.16,0,0,0-.24,0,3.44,3.44,0,0,1-.66.69h-.4V3.21s.06-.07.12-.11.24-.12.24-.23-.12-.21-.29-.28c-.4-.16-.89-.28-1.43-.44-.07,0-.1,0-.08.06l.11.44v.94H60l-1-.1c-.09,0-.14,0-.13.06l.12.49c0,.06,0,.07.11,0L60,4h.51v.86H59.22l-1-.1c-.09,0-.14,0-.13.06l.12.49s0,.07.11,0l.91-.11h.21a1.86,1.86,0,0,1-1,1.47,3.09,3.09,0,0,1-.61.27c-.08,0-.16,0-.16.09s.06.06.13.07C59.22,7,60.13,6.56,60.53,5.83Zm1.29.88A.29.29,0,0,0,62,6.56a2.69,2.69,0,0,0,.56.26,6.46,6.46,0,0,1-.53.54h-.31V6.94A.24.24,0,0,1,61.82,6.71Z"/><path class="cls-1" d="M42.59,12.22A13.31,13.31,0,0,1,36.75,10a13.83,13.83,0,0,0,1.72-2.68,21.5,21.5,0,0,0,1.22-4.14h2.65a.28.28,0,0,0,.25-.1q0-.09-.06-.21a4.82,4.82,0,0,0-1.3-1.2.2.2,0,0,0-.28,0c-.27.32-.53.64-.77,1a.29.29,0,0,1-.24.13h-3.4V1.32c0-.09.05-.13.14-.18s.25-.13.25-.25-.13-.22-.31-.3C36.18.41,35.56.25,35,.08c-.07,0-.11,0-.09.06l.21.52V2.82H30.27l-1-.1c-.13,0-.18,0-.16,0a4.1,4.1,0,0,0,.14.53c0,.06.06.08.16,0l.86-.13h2.55a14.53,14.53,0,0,0,2.24,6.88,13.77,13.77,0,0,1-5.69,3.46.11.11,0,0,0-.1.12c0,.05,0,.08.11.07A10.69,10.69,0,0,0,35.82,11a10.42,10.42,0,0,0,5.54,2.75c.12,0,.19,0,.2-.05a1.42,1.42,0,0,1,.33-.68,1.56,1.56,0,0,1,.73-.53c.09,0,.14-.08.13-.14S42.68,12.23,42.59,12.22Zm-6.79-3A8.66,8.66,0,0,1,34.08,7a12.23,12.23,0,0,1-1-3.82h5.19A13.69,13.69,0,0,1,35.8,9.25Z"/><path class="cls-1" d="M61,9.51q-.18,0-.15.06a2.85,2.85,0,0,0,.14.5c0,.07.06.08.15,0l.83-.12h5.81a.24.24,0,0,0,.23-.1c0-.06,0-.12,0-.2a4,4,0,0,0-1.08-1c-.1-.07-.18-.06-.24,0-.24.26-.46.54-.68.83a.25.25,0,0,1-.22.1H61.92Z"/><path class="cls-1" d="M48.33,1A5.17,5.17,0,0,0,46.79.38c-.11,0-.18,0-.19.1a16.48,16.48,0,0,1-2,5.52.21.21,0,0,0-.08.12,12.88,12.88,0,0,1-1.23,1.6c-.09.09-.17.2-.14.23s.17,0,.28,0a9.41,9.41,0,0,0,2.1-2s0,0,0,0V13.5h0v.29c0,.4.36.19.51.13a3.67,3.67,0,0,0,.75-.44s.13-.1.13-.21v-.1h0V5.11l.35-.31a.26.26,0,0,0-.15-.23l-.52-.27c.37-.68.79-1.57,1.25-2.65.06-.15.13-.22.23-.22s.35-.08.38-.2S48.47,1,48.33,1Z"/><path class="cls-1" d="M75,13.26V5.62a10.86,10.86,0,0,1,.86-1.2c.18,0,.28-.06.31-.16S76.14,4.05,76,4a9.87,9.87,0,0,0-1.33-.44s-.07,0-.09.07a9.39,9.39,0,0,1-2.41,4.54s0,.07,0,.1a.07.07,0,0,0,.11,0A8,8,0,0,0,73.7,7.15v5.47h0v1.23c0,.38.35.18.49.12a3.85,3.85,0,0,0,.71-.42s.13-.09.13-.2v-.08Z"/><path class="cls-1" d="M79.14,3.6h2.4c.11,0,.19,0,.21-.11a.26.26,0,0,0-.07-.29,3.27,3.27,0,0,0-.77-.9.18.18,0,0,0-.3,0c-.22.3-.41.55-.55.78a.24.24,0,0,1-.21.1h-.69V1.61c0-.08,0-.11.12-.16s.24-.13.24-.24S79.4,1,79.23.94c-.41-.17-1-.32-1.53-.48-.06,0-.1,0-.08.06l.2.48V3.22h-.68l-1-.1c-.1,0-.14,0-.13.06s.08.33.11.49,0,.07.12,0l.91-.11h.66V5.85c0-.08-.31-.24-.53-.33a5.48,5.48,0,0,0-1.11-.27c-.14,0-.15,0-.14.11s.21.28.22.53h0v.36a16.79,16.79,0,0,1-.69,5.56c0,.07,0,.12,0,.14s.12,0,.18,0q1.59-1.65,1.65-5.59h0a.3.3,0,0,1,.1-.2c.12,0,.31-.08.33-.22v7.73c0,.38.36.18.5.13a3.88,3.88,0,0,0,.72-.43s.13-.09.13-.2V3.6Z"/><path class="cls-1" d="M82.46,10.47a.56.56,0,0,0-.35-.54,3.26,3.26,0,0,1-.25-1.21c0-.07,0-.1-.06-.1s0,0,0,.1A2.49,2.49,0,0,1,81.39,10l-.27,0c-.15,0-.22,0-.22-.15V6.29A.16.16,0,0,1,81,6.1a.22.22,0,0,0,.17-.2c0-.1-.09-.17-.26-.21a7.9,7.9,0,0,0-1.14-.12s0,0,0,.07v4.5a.88.88,0,0,0,.22.65,1.57,1.57,0,0,0,1,.34A2.93,2.93,0,0,0,82.08,11,.49.49,0,0,0,82.46,10.47Z"/><path class="cls-1" d="M69.34,9.75a.18.18,0,0,0-.25,0,10.13,10.13,0,0,0-.72.9.34.34,0,0,1-.24.11H59.22l-1-.1q-.18,0-.15.06a2.85,2.85,0,0,0,.14.5c0,.07.06.08.15,0l.83-.12h2.94a5.84,5.84,0,0,1-.51,1.21c-1.13,0-1.94-.05-2.41-.1-.1,0-.14,0-.13.1a6.92,6.92,0,0,0,.28,1.35q.06.18.21.18c.09,0,.15-.06.2-.17s.16-.12.39-.15c3.12-.34,5.49-.68,7.13-1l.44.51c.47.59.66,1.08,1.21.87a.73.73,0,0,0,.48-.58.9.9,0,0,0-.27-.9,8,8,0,0,0-2.92-1c-.07,0,.1.19.15.24.2.17.39.34.57.52-1.4.09-2.94.14-4.61.16a8.62,8.62,0,0,0,1.28-1.21h6.72a.25.25,0,0,0,.24-.1.19.19,0,0,0-.06-.2A4.06,4.06,0,0,0,69.34,9.75Z"/><path class="cls-1" d="M70.47,6.31c-.3.55-.34.58-.46.69a.2.2,0,0,1-.2,0,.17.17,0,0,1-.1-.07,5.24,5.24,0,0,1-.13-1.91.14.14,0,0,1,.1-.14c.39-.15.43-.34.13-.57a5.21,5.21,0,0,0-1.07-.56q-.18-.07-.24,0a2.29,2.29,0,0,1-.48.55h-.53c0-.25,0-.51,0-.77s.17-.25.26-.38-.08-.16-.26-.2c-.4-.08-.82-.15-1.24-.2-.06,0-.1,0-.1.09s0,.4,0,.59,0,.6,0,.87h-.3l-1-.08c-.09,0-.14,0-.13.09l.12.45c0,.07.07.08.19,0l.78-.11h.29c0,.23,0,.46,0,.67s0,.23,0,.35a2.28,2.28,0,0,0-.81-.25.09.09,0,0,0-.1.07.1.1,0,0,0,.06.11,2.46,2.46,0,0,1,.77.64,3.81,3.81,0,0,1-1.93,2.7.12.12,0,0,0,0,.09s0,.06.1,0a4.07,4.07,0,0,0,2.55-1.63,1.34,1.34,0,0,0,.37.73.56.56,0,0,0,.52.07.55.55,0,0,0,.37-.44,1,1,0,0,0-.09-.66,2.43,2.43,0,0,0-.66-.8,15.61,15.61,0,0,0,.28-1.7h.66c.07,0,.11,0,.11.13a7.6,7.6,0,0,0,.65,3.58h0l0,0c.07.11.15.22.22.31a1.68,1.68,0,0,0,.79.68.69.69,0,0,0,.62-.13c.16-.15.13-.48,0-.83.13-.52.11-.67.4-1.94A5.22,5.22,0,0,0,71.1,5.2,7,7,0,0,0,70.47,6.31Z"/><path class="cls-1" d="M21.11,18.92c0,.21,0,.21.26.21h.53a2.94,2.94,0,0,0,.67-.05c.09,0,.15-.07.2-.27l.07-.31a.15.15,0,0,1,.2,0c0,.18,0,.5,0,.79s0,.58,0,.76a.18.18,0,0,1-.2,0l-.08-.31a.37.37,0,0,0-.25-.3,2.79,2.79,0,0,0-.61,0h-.53c-.23,0-.26,0-.26.22V20.7c0,.83,0,.94.48,1l.27,0s0,.17,0,.19l-1,0-1,0a.15.15,0,0,1,0-.19l.19,0c.46-.05.47-.15.47-1V17.89c0-.83,0-.94-.47-1l-.12,0c-.05,0,0-.17,0-.19l.91,0h1.44c.5,0,1,0,1.06,0,0,.36,0,.73,0,1,0,.05-.13.07-.19,0-.06-.35-.15-.63-.54-.74a3.81,3.81,0,0,0-.76-.05h-.48c-.24,0-.24,0-.24.32Z"/><path class="cls-1" d="M26.85,20.3A1.6,1.6,0,0,1,25.2,22a1.55,1.55,0,0,1-1.6-1.62,1.64,1.64,0,0,1,1.66-1.69A1.56,1.56,0,0,1,26.85,20.3Zm-1.68-1.38c-.52,0-.9.49-.9,1.35s.32,1.48,1,1.48.9-.72.9-1.32S25.91,18.92,25.17,18.92Z"/><path class="cls-1" d="M28.29,20.73c0,.54.14.9.73.9a1.06,1.06,0,0,0,.64-.24.54.54,0,0,0,.15-.45V19.65c0-.5,0-.52-.29-.61l-.1,0a.12.12,0,0,1,0-.18,2.92,2.92,0,0,0,.92-.14.11.11,0,0,1,.07.06,5.77,5.77,0,0,0,0,.68v1.31c0,.62,0,.86.24.86a1.76,1.76,0,0,0,.31,0,.18.18,0,0,1,0,.23,3.86,3.86,0,0,0-1,.29.13.13,0,0,1-.1-.06v-.32c0-.07,0-.11-.07-.11a2,2,0,0,1-1.08.41c-.69,0-.95-.35-.95-1V19.7c0-.49,0-.56-.23-.66l-.09,0a.13.13,0,0,1,0-.18,2.37,2.37,0,0,0,.84-.14c.05,0,.07,0,.08.06a4.61,4.61,0,0,0,0,.68Z"/><path class="cls-1" d="M31.75,19.63c0-.3,0-.34-.21-.48l-.08,0s0-.12,0-.14a4.83,4.83,0,0,0,.79-.39.08.08,0,0,1,.08.06c0,.18,0,.3,0,.37a.08.08,0,0,0,.08.08,2.2,2.2,0,0,1,1.1-.4.87.87,0,0,1,.91,1V21c0,.56,0,.64.3.68l.17,0c.06,0,0,.17,0,.19l-.74,0-.73,0s-.07-.16,0-.19l.15,0c.29,0,.29-.12.29-.68V19.83a.67.67,0,0,0-.73-.77.86.86,0,0,0-.67.27.69.69,0,0,0-.11.47V21c0,.56,0,.64.29.68l.14,0c.06,0,0,.17,0,.19l-.71,0-.74,0c-.05,0-.07-.16,0-.19l.17,0c.29,0,.3-.12.3-.68Z"/><path class="cls-1" d="M38.33,20.73c0,.62,0,.91.23.91a1.21,1.21,0,0,0,.33-.08c.06,0,.07.22,0,.26a5.12,5.12,0,0,0-1,.25.08.08,0,0,1-.08-.07v-.13a.66.66,0,0,0,0-.24h0a1.67,1.67,0,0,1-1,.36,1.44,1.44,0,0,1-1.45-1.51,1.78,1.78,0,0,1,1.9-1.8,1.56,1.56,0,0,1,.52.07s0,0,0-.11V17.46c0-.46,0-.51-.24-.65l-.08,0s0-.14,0-.16a5.36,5.36,0,0,0,.85-.33.08.08,0,0,1,.07,0c0,.23,0,.62,0,1Zm-.58-1.17a.4.4,0,0,0-.09-.3.78.78,0,0,0-.65-.33c-.72,0-1.08.61-1.08,1.3a1.24,1.24,0,0,0,1.16,1.38,1,1,0,0,0,.61-.22.52.52,0,0,0,0-.29Z"/><path class="cls-1" d="M40.77,20.26c.12,0,.13-.11.14-.23v-.36c0-.29-.08-.68-.57-.68-.22,0-.48.11-.5.35s0,.22-.08.27a.86.86,0,0,1-.44.15.1.1,0,0,1-.11-.11c0-.41.88-1,1.45-1s.84.33.82.92l0,1.36c0,.36.06.68.36.68a.54.54,0,0,0,.2,0s.07-.06.1-.06,0,.05,0,.1a.81.81,0,0,1-.65.35.61.61,0,0,1-.51-.25s-.08-.1-.13-.1a1.29,1.29,0,0,0-.3.15A1.15,1.15,0,0,1,40,22a.88.88,0,0,1-.55-.18.78.78,0,0,1-.24-.55c0-.31.15-.49.65-.67Zm-.48,1.38a.85.85,0,0,0,.47-.2c.1-.09.11-.2.11-.37v-.46c0-.09,0-.1-.08-.1a1.41,1.41,0,0,0-.32.08c-.46.15-.69.27-.69.58A.48.48,0,0,0,40.29,21.64Z"/><path class="cls-1" d="M43.41,19.12c-.13,0-.14,0-.14.19v1.46c0,.46,0,.87.57.87a.46.46,0,0,0,.21,0c.07,0,.18-.11.2-.11s.09.09.08.14a1.11,1.11,0,0,1-.82.36c-.68,0-.82-.38-.82-.85V19.35c0-.21,0-.23-.16-.23h-.22a.12.12,0,0,1,0-.16,1.44,1.44,0,0,0,.5-.24,1.65,1.65,0,0,0,.33-.47s.14,0,.17,0v.35c0,.15,0,.15.14.15h.87a.26.26,0,0,1,0,.33Z"/><path class="cls-1" d="M45.09,19.63c0-.3,0-.34-.21-.48l-.07,0s0-.12,0-.14a6,6,0,0,0,.81-.39s.07,0,.07.05c0,.27,0,.65,0,1V21c0,.56,0,.64.3.68l.16,0c.06,0,0,.17,0,.19l-.74,0-.73,0c-.06,0-.07-.16,0-.19l.17,0c.29,0,.29-.12.29-.68Zm.65-2.27a.41.41,0,0,1-.81,0,.41.41,0,0,1,.42-.42A.38.38,0,0,1,45.74,17.36Z"/><path class="cls-1" d="M49.79,20.3A1.6,1.6,0,0,1,48.14,22a1.56,1.56,0,0,1-1.61-1.62,1.65,1.65,0,0,1,1.67-1.69A1.56,1.56,0,0,1,49.79,20.3Zm-1.68-1.38c-.52,0-.9.49-.9,1.35s.32,1.48,1,1.48.9-.72.9-1.32S48.85,18.92,48.11,18.92Z"/><path class="cls-1" d="M50.75,19.63c0-.3,0-.34-.21-.48l-.07,0s0-.12,0-.14a4.37,4.37,0,0,0,.78-.39.11.11,0,0,1,.09.06,3.1,3.1,0,0,0,0,.37.08.08,0,0,0,.09.08,2.19,2.19,0,0,1,1.09-.4.87.87,0,0,1,.92,1V21c0,.56,0,.64.3.68l.17,0c.06,0,0,.17,0,.19l-.74,0-.73,0c-.05,0-.07-.16,0-.19l.14,0c.29,0,.3-.12.3-.68V19.83a.67.67,0,0,0-.73-.77.86.86,0,0,0-.67.27.69.69,0,0,0-.12.47V21c0,.56,0,.64.3.68l.14,0c.06,0,0,.17,0,.19l-.72,0-.73,0c-.06,0-.07-.16,0-.19l.17,0c.29,0,.29-.12.29-.68Z"/><path class="cls-1" d="M57.51,19.12c-.13,0-.13,0-.13.23V21c0,.56,0,.66.29.68l.29,0s0,.17,0,.19l-.85,0-.75,0c-.06,0-.07-.16,0-.19l.18,0c.29,0,.3-.12.3-.68V19.35c0-.21,0-.23-.16-.23h-.27a.11.11,0,0,1,0-.15l.34-.16a.19.19,0,0,0,.12-.16A3.5,3.5,0,0,1,57,17.27a1.55,1.55,0,0,1,1.41-1c.41,0,.77.19.77.47a.3.3,0,0,1-.3.28.23.23,0,0,1-.19-.09.89.89,0,0,0-.63-.35.6.6,0,0,0-.55.43,4.23,4.23,0,0,0-.17,1.33v.22c0,.22,0,.22.13.22h.89a.24.24,0,0,1,0,.33Z"/><path class="cls-1" d="M61.78,20.3A1.61,1.61,0,0,1,60.12,22a1.55,1.55,0,0,1-1.6-1.62,1.65,1.65,0,0,1,1.67-1.69A1.57,1.57,0,0,1,61.78,20.3Zm-1.69-1.38c-.51,0-.9.49-.9,1.35s.32,1.48,1,1.48.9-.72.9-1.32S60.84,18.92,60.09,18.92Z"/><path class="cls-1" d="M62.74,19.63c0-.3,0-.34-.21-.48l-.07,0s0-.12,0-.14a7.19,7.19,0,0,0,.79-.39s.06,0,.06.06v.45s0,.07,0,.07a1.65,1.65,0,0,1,.86-.47.33.33,0,0,1,.36.32.35.35,0,0,1-.34.36.29.29,0,0,1-.17-.06.64.64,0,0,0-.35-.12.36.36,0,0,0-.28.15,1.2,1.2,0,0,0-.1.61V21c0,.56,0,.66.31.68l.28,0c.06,0,0,.17,0,.19l-.87,0-.72,0c-.06,0-.07-.16,0-.19l.15,0c.29,0,.3-.12.3-.68Z"/><path class="cls-1" d="M67.86,17.25A3.4,3.4,0,0,1,70,16.59a6.14,6.14,0,0,1,1.39.18.64.64,0,0,0,.22,0c0,.18,0,.67.11,1.15a.17.17,0,0,1-.21,0,1.42,1.42,0,0,0-1.61-1.14,2.14,2.14,0,0,0-2.21,2.38A2.31,2.31,0,0,0,70,21.76a1.68,1.68,0,0,0,1.64-1.12.17.17,0,0,1,.2,0,2.72,2.72,0,0,1-.38,1.07l-.27.08a4.35,4.35,0,0,1-1.24.18A3.43,3.43,0,0,1,68,21.48a2.51,2.51,0,0,1-1.12-2.15A2.6,2.6,0,0,1,67.86,17.25Z"/><path class="cls-1" d="M73,20.73c0,.54.14.9.73.9a1.06,1.06,0,0,0,.64-.24.54.54,0,0,0,.15-.45V19.65c0-.5,0-.52-.29-.61l-.1,0a.12.12,0,0,1,0-.18,2.92,2.92,0,0,0,.92-.14.11.11,0,0,1,.07.06,5.77,5.77,0,0,0,0,.68v1.31c0,.62,0,.86.24.86a1.76,1.76,0,0,0,.31,0,.18.18,0,0,1,0,.23,3.86,3.86,0,0,0-1,.29.13.13,0,0,1-.1-.06v-.32c0-.07,0-.11-.07-.11a2,2,0,0,1-1.08.41c-.69,0-1-.35-1-1V19.7c0-.49,0-.56-.23-.66l-.09,0a.13.13,0,0,1,0-.18,2.37,2.37,0,0,0,.84-.14s.07,0,.08.06a4.61,4.61,0,0,0,0,.68Z"/><path class="cls-1" d="M77,21c0,.56,0,.64.3.68l.18,0c.06,0,0,.17,0,.19l-.76,0-.75,0c-.06,0-.07-.16,0-.19l.18,0c.29,0,.3-.12.3-.68V17.46c0-.46,0-.51-.24-.65l-.08,0s0-.14,0-.16a5.3,5.3,0,0,0,.84-.33.09.09,0,0,1,.08,0c0,.23,0,.62,0,1Z"/><path class="cls-1" d="M79,19.12c-.13,0-.14,0-.14.19v1.46c0,.46.06.87.57.87a.54.54,0,0,0,.22,0,2,2,0,0,0,.19-.11c.06,0,.1.09.08.14a1.09,1.09,0,0,1-.82.36c-.68,0-.82-.38-.82-.85V19.35c0-.21,0-.23-.16-.23h-.22a.12.12,0,0,1,0-.16,1.66,1.66,0,0,0,.5-.24,2.17,2.17,0,0,0,.33-.47s.13,0,.16,0v.35c0,.15,0,.15.14.15h.87a.26.26,0,0,1,0,.33Z"/><path class="cls-1" d="M81.11,20.73c0,.54.14.9.73.9a1.06,1.06,0,0,0,.64-.24.54.54,0,0,0,.15-.45V19.65c0-.5,0-.52-.29-.61l-.1,0a.12.12,0,0,1,0-.18,2.92,2.92,0,0,0,.92-.14.11.11,0,0,1,.07.06,5.77,5.77,0,0,0,0,.68v1.31c0,.62,0,.86.25.86a1.77,1.77,0,0,0,.3,0s.06.19,0,.23a3.86,3.86,0,0,0-1,.29.13.13,0,0,1-.1-.06v-.32c0-.07,0-.11-.07-.11a2,2,0,0,1-1.08.41c-.69,0-.94-.35-.94-1V19.7c0-.49,0-.56-.24-.66l-.09,0a.13.13,0,0,1,0-.18,2.37,2.37,0,0,0,.84-.14s.07,0,.08.06a4.61,4.61,0,0,0,0,.68Z"/><path class="cls-1" d="M84.57,19.63c0-.3,0-.34-.21-.48l-.07,0s0-.12,0-.14a6.41,6.41,0,0,0,.79-.39s.07,0,.07.06v.45s0,.07,0,.07a1.61,1.61,0,0,1,.86-.47.32.32,0,0,1,.35.32.34.34,0,0,1-.33.36.35.35,0,0,1-.18-.06.59.59,0,0,0-.34-.12.34.34,0,0,0-.28.15,1.2,1.2,0,0,0-.1.61V21c0,.56,0,.66.31.68l.28,0c.06,0,0,.17,0,.19l-.87,0-.72,0c-.06,0-.07-.16,0-.19l.15,0c.29,0,.3-.12.3-.68Z"/><path class="cls-1" d="M87.26,19.87c-.2,0-.21,0-.21.22a1.32,1.32,0,0,0,1.3,1.46.85.85,0,0,0,.72-.38.1.1,0,0,1,.14.09,1.44,1.44,0,0,1-2.36.21,1.62,1.62,0,0,1-.33-1,1.64,1.64,0,0,1,1.57-1.77,1,1,0,0,1,1.11.94.4.4,0,0,1,0,.2c0,.05-.13.05-.46.05Zm.49-.23c.58,0,.75,0,.81-.08a.18.18,0,0,0,0-.15c0-.22-.15-.49-.6-.49a.9.9,0,0,0-.87.68s0,0,0,0Z"/><path class="cls-1" d="M93.16,20.26c.11,0,.12-.11.13-.23v-.36c0-.29-.09-.68-.57-.68-.22,0-.49.11-.5.35s0,.22-.08.27a.89.89,0,0,1-.45.15.1.1,0,0,1-.11-.11c0-.41.89-1,1.46-1s.83.33.81.92l0,1.36c0,.36.06.68.36.68a.54.54,0,0,0,.2,0,.28.28,0,0,1,.1-.06s.06.05.06.1a.83.83,0,0,1-.66.35.61.61,0,0,1-.51-.25s-.08-.1-.12-.1a1.29,1.29,0,0,0-.31.15,1.08,1.08,0,0,1-.56.2.84.84,0,0,1-.55-.18.74.74,0,0,1-.24-.55c0-.31.14-.49.65-.67Zm-.49,1.38a.88.88,0,0,0,.48-.2.47.47,0,0,0,.1-.37l0-.46c0-.09,0-.1-.08-.1a1.3,1.3,0,0,0-.32.08c-.46.15-.69.27-.69.58A.47.47,0,0,0,92.67,21.64Z"/><path class="cls-1" d="M95.15,19.63c0-.3,0-.34-.21-.48l-.07,0s0-.12,0-.14a4.37,4.37,0,0,0,.78-.39.11.11,0,0,1,.09.06,3.1,3.1,0,0,0,0,.37.08.08,0,0,0,.09.08,2.16,2.16,0,0,1,1.09-.4.87.87,0,0,1,.92,1V21c0,.56,0,.64.3.68l.17,0s0,.17,0,.19l-.73,0-.73,0s-.07-.16,0-.19l.14,0c.29,0,.3-.12.3-.68V19.83a.68.68,0,0,0-.74-.77.85.85,0,0,0-.66.27.69.69,0,0,0-.12.47V21c0,.56,0,.64.3.68l.14,0c.06,0,0,.17,0,.19l-.71,0-.73,0c-.06,0-.07-.16,0-.19l.17,0c.29,0,.29-.12.29-.68Z"/><path class="cls-1" d="M101.74,20.73c0,.62,0,.91.22.91a1.27,1.27,0,0,0,.34-.08c.06,0,.06.22,0,.26a5,5,0,0,0-1,.25.08.08,0,0,1-.09-.07v-.13a1.29,1.29,0,0,0,0-.24h0a1.67,1.67,0,0,1-1,.36,1.44,1.44,0,0,1-1.45-1.51,1.78,1.78,0,0,1,1.9-1.8,1.67,1.67,0,0,1,.52.07s0,0,0-.11V17.46c0-.46,0-.51-.25-.65l-.07,0s0-.14,0-.16a5.3,5.3,0,0,0,.84-.33.1.1,0,0,1,.08,0c0,.23,0,.62,0,1Zm-.58-1.17a.4.4,0,0,0-.09-.3.8.8,0,0,0-.66-.33c-.71,0-1.08.61-1.08,1.3a1.24,1.24,0,0,0,1.17,1.38.92.92,0,0,0,.6-.22c.05,0,.06-.16.06-.29Z"/><path class="cls-1" d="M118.52,20.06c0-.17-.08-.19-.32-.19H117c-.2,0-.24,0-.3.18l-.27.83a2.71,2.71,0,0,0-.17.65c0,.09,0,.14.22.15l.26,0a.12.12,0,0,1,0,.19l-.82,0-.75,0a.15.15,0,0,1,0-.19l.26,0a.51.51,0,0,0,.47-.38c.14-.36.36-.87.69-1.75l.8-2.11a1,1,0,0,0,.13-.56.87.87,0,0,0,.41-.29.11.11,0,0,1,.12.07c.1.34.22.7.34,1.05l1.08,3.14c.22.68.32.79.66.83l.21,0c.06,0,0,.16,0,.19l-1,0-.9,0c-.06,0-.07-.16,0-.19l.23,0c.16,0,.27-.06.27-.14a1.66,1.66,0,0,0-.1-.41ZM117,19.37c-.06.17,0,.18.17.18h1c.23,0,.24,0,.17-.24L117.85,18a4.13,4.13,0,0,0-.18-.49h0a2.87,2.87,0,0,0-.19.46Z"/><path class="cls-1" d="M120.9,19.63c0-.3,0-.34-.21-.48l-.07,0s0-.12,0-.14a7.19,7.19,0,0,0,.79-.39s.06,0,.06.06v.45s0,.07,0,.07a1.61,1.61,0,0,1,.86-.47.33.33,0,0,1,.35.32.35.35,0,0,1-.34.36.32.32,0,0,1-.17-.06.61.61,0,0,0-.34-.12.38.38,0,0,0-.29.15,1.32,1.32,0,0,0-.1.61V21c0,.56,0,.66.32.68l.28,0s0,.17,0,.19l-.87,0-.72,0s-.07-.16,0-.19l.15,0c.29,0,.29-.12.29-.68Z"/><path class="cls-1" d="M124.13,19.12c-.14,0-.14,0-.14.19v1.46c0,.46.05.87.57.87a.46.46,0,0,0,.21,0,2,2,0,0,0,.19-.11c.07,0,.1.09.08.14a1.09,1.09,0,0,1-.82.36c-.67,0-.81-.38-.81-.85V19.35c0-.21,0-.23-.17-.23H123a.14.14,0,0,1,0-.16,1.54,1.54,0,0,0,.5-.24,2.17,2.17,0,0,0,.33-.47s.13,0,.16,0v.35c0,.15,0,.15.15.15H125a.25.25,0,0,1,0,.33Z"/><path class="cls-1" d="M127.19,18.82a1.91,1.91,0,0,1,.12.64c0,.05-.15.07-.18,0a.78.78,0,0,0-.69-.57.46.46,0,0,0-.5.48c0,.32.32.49.6.65s.8.5.8,1.05-.55.9-1.13.9a1.29,1.29,0,0,1-.84-.24,2.29,2.29,0,0,1-.09-.79.14.14,0,0,1,.18,0c.13.43.38.81.83.81a.48.48,0,0,0,.52-.5c0-.36-.31-.56-.6-.72-.45-.26-.78-.53-.78-1s.47-.9,1.07-.9A1.42,1.42,0,0,1,127.19,18.82Z"/><path class="cls-1" d="M1.12,19.67c-.24,0-.25,0-.25.23A1.5,1.5,0,0,0,2.4,21.51a1,1,0,0,0,.85-.42.11.11,0,0,1,.16.1A1.63,1.63,0,0,1,2,22a1.7,1.7,0,0,1-1.34-.57A1.77,1.77,0,0,1,.25,20.3,1.85,1.85,0,0,1,2.1,18.36a1.18,1.18,0,0,1,1.3,1,.68.68,0,0,1,0,.22c0,.05-.16.06-.55.06Zm.57-.26a2.43,2.43,0,0,0,1-.08s.05-.06.05-.17-.17-.54-.7-.54a1.05,1.05,0,0,0-1,.75s0,0,.06,0Z"/><path class="cls-1" d="M5.92,18.5a1.94,1.94,0,0,1,.16.69.16.16,0,0,1-.22,0c-.16-.37-.38-.61-.75-.61a.53.53,0,0,0-.57.53c0,.36.42.54.74.71.48.24.93.53.94,1.14s-.64,1-1.31,1A1.44,1.44,0,0,1,4,21.75a2.38,2.38,0,0,1-.13-.87.17.17,0,0,1,.21,0c.16.47.43.88,1,.87a.57.57,0,0,0,.62-.56c0-.4-.4-.6-.74-.78-.53-.27-.9-.57-.91-1,0-.63.52-1,1.21-1A1.33,1.33,0,0,1,5.92,18.5Z"/><path class="cls-1" d="M7.89,20.91c0,.61,0,.7.33.74l.21,0a.14.14,0,0,1,0,.21l-.84,0-.83,0c-.06,0-.07-.17,0-.21l.2,0c.32,0,.32-.13.32-.74V17.59c0-.51,0-.56-.26-.71l-.09-.05s0-.15,0-.17a5.56,5.56,0,0,0,.93-.37.1.1,0,0,1,.09.06c0,.25,0,.68,0,1.06Z"/><path class="cls-1" d="M9.57,19.4c0-.33,0-.37-.23-.53l-.08-.05a.11.11,0,0,1,0-.16,5.11,5.11,0,0,0,.89-.42.09.09,0,0,1,.09.06c0,.3,0,.71,0,1.06v1.55c0,.61,0,.7.33.74l.18,0c.06,0,0,.19,0,.21l-.82,0-.81,0a.14.14,0,0,1,0-.21l.18,0c.32,0,.33-.13.33-.74Zm.7-2.35a.44.44,0,0,1-.87,0,.44.44,0,0,1,.46-.45A.41.41,0,0,1,10.27,17.05Z"/><path class="cls-1" d="M12.61,18.85c-.15,0-.16,0-.16.2v1.61c0,.49.06.95.65.95a.86.86,0,0,0,.24,0c.08,0,.19-.12.22-.12s.1.09.09.14a1.25,1.25,0,0,1-.93.4c-.76,0-.92-.41-.92-.93v-2c0-.23,0-.24-.19-.24h-.24a.14.14,0,0,1,0-.19,1.46,1.46,0,0,0,.56-.26,2.05,2.05,0,0,0,.38-.51s.15,0,.18,0v.39c0,.16,0,.16.16.16h1a.28.28,0,0,1,0,.37Z"/><path class="cls-1" d="M14.92,19.67c-.24,0-.25,0-.25.23a1.5,1.5,0,0,0,1.53,1.61,1,1,0,0,0,.84-.42.12.12,0,0,1,.17.1,1.66,1.66,0,0,1-1.45.8,1.68,1.68,0,0,1-1.33-.57A1.72,1.72,0,0,1,14,20.3a1.86,1.86,0,0,1,1.85-1.94,1.19,1.19,0,0,1,1.31,1,.44.44,0,0,1,0,.22c0,.05-.16.06-.54.06Zm.57-.26c.68,0,.88,0,1-.08s.06-.06.06-.17-.18-.54-.71-.54a1.07,1.07,0,0,0-1,.75s0,0,.06,0Z"/><path class="cls-1" d="M105.3,19.13c-.13,0-.14,0-.14.18v1.46c0,.45,0,.86.57.86a.66.66,0,0,0,.21,0c.07,0,.17-.11.19-.11a.1.1,0,0,1,.08.13,1.09,1.09,0,0,1-.82.36c-.67,0-.81-.38-.81-.84V19.35c0-.21,0-.22-.16-.22h-.22s0-.12,0-.17a1.66,1.66,0,0,0,.5-.24,1.63,1.63,0,0,0,.32-.46s.14,0,.17,0v.35c0,.14,0,.15.14.15h.86a.26.26,0,0,1,0,.33Z"/><path class="cls-1" d="M107,17.48c0-.46,0-.51-.24-.65l-.08,0a.14.14,0,0,1,0-.15,5,5,0,0,0,.84-.33.08.08,0,0,1,.08.05c0,.23,0,.62,0,1V19a.26.26,0,0,0,0,.15,1.75,1.75,0,0,1,1-.41.91.91,0,0,1,1,1V21c0,.56,0,.64.29.67l.21,0a.13.13,0,0,1,0,.19l-.78,0-.73,0a.13.13,0,0,1,0-.19l.15,0c.29,0,.3-.11.3-.67V19.88c0-.5-.24-.83-.74-.83a.93.93,0,0,0-.61.21c-.14.12-.16.16-.16.43V21c0,.56,0,.63.3.67l.16,0s0,.17,0,.19l-.73,0-.76,0c-.06,0-.07-.15,0-.19l.2,0c.29,0,.29-.11.29-.67Z"/><path class="cls-1" d="M111.31,19.88c-.2,0-.21,0-.21.21a1.32,1.32,0,0,0,1.29,1.45.85.85,0,0,0,.72-.38.1.1,0,0,1,.14.09,1.43,1.43,0,0,1-2.35.21,1.61,1.61,0,0,1-.33-1,1.63,1.63,0,0,1,1.57-1.76,1,1,0,0,1,1.1.93.4.4,0,0,1,0,.2c0,.05-.13.06-.46.06Zm.48-.24c.58,0,.75,0,.81-.08s.05,0,.05-.14-.15-.49-.6-.49a.9.9,0,0,0-.86.67s0,0,0,0Z"/></g></svg>