<svg id="圖層_1" data-name="圖層 1" xmlns="http://www.w3.org/2000/svg" viewBox="0 0 21.01 23.57"><defs><style>.cls-1{fill:#b3b3b3;}</style></defs><title>20200212_條件查詢</title><path class="cls-1" d="M0,13C0,10.19,0,7.35,0,4.5a2,2,0,0,1,2-2c.86,0,1.72,0,2.58,0,.33,0,.33,0,.33-.34s0-.89,0-1.34A.8.8,0,0,1,5.41.08a.71.71,0,0,1,.78.08.78.78,0,0,1,.32.67c0,.46,0,.93,0,1.4,0,.19,0,.27.25.27h7.55c.2,0,.26-.08.25-.27,0-.46,0-.92,0-1.38a.78.78,0,1,1,1.56,0c0,.47,0,1,0,1.43,0,.22.06.3.29.29q1.34,0,2.67,0a1.87,1.87,0,0,1,1.72,1,1.83,1.83,0,0,1,.21.92V21.68a1.81,1.81,0,0,1-1.89,1.89H1.89A1.81,1.81,0,0,1,0,21.69V13ZM10.55,9.55H1.83c-.21,0-.29,0-.29.27,0,3.91,0,7.81,0,11.72,0,.37.09.46.45.46H19.07c.37,0,.46-.08.46-.46,0-3.9,0-7.8,0-11.7,0-.24-.07-.3-.3-.3ZM10.49,8H19.1c.36,0,.37,0,.38-.38V4.49c0-.33-.11-.43-.44-.43H16.65c-.59,0-.51-.08-.53.52a.73.73,0,0,0,.26.63,1.19,1.19,0,0,1,.34.88,1.38,1.38,0,0,1-2.58.67,1.3,1.3,0,0,1,.25-1.63.48.48,0,0,0,.17-.43c0-.1,0-.2,0-.3,0-.34,0-.34-.33-.34H7c-.63,0-.53-.09-.55.55a.82.82,0,0,0,.24.64A1.21,1.21,0,0,1,7,6.4,1.35,1.35,0,0,1,5.84,7.5a1.39,1.39,0,0,1-1.37-.71,1.3,1.3,0,0,1,.2-1.54.71.71,0,0,0,.23-.62,1.31,1.31,0,0,1,0-.28c0-.19-.06-.25-.24-.25H2c-.36,0-.46.1-.46.45V7.68c0,.33,0,.33.33.33Z"/><path class="cls-1" d="M12.66,13V14.2a.78.78,0,0,1-.79.86c-.87,0-1.73,0-2.6,0a.79.79,0,0,1-.81-.87V11.78a.82.82,0,0,1,.92-.93h2.13a2.18,2.18,0,0,1,.51,0,.74.74,0,0,1,.64.75C12.67,12.07,12.66,12.51,12.66,13Z"/><path class="cls-1" d="M14.22,12.89c0-.41,0-.81,0-1.22a.74.74,0,0,1,.73-.81c.53,0,1.06,0,1.59,0h1a.83.83,0,0,1,.92.94c0,.79,0,1.58,0,2.37a.82.82,0,0,1-.91.92H15.17a.84.84,0,0,1-1-1C14.23,13.7,14.19,13.29,14.22,12.89Z"/><path class="cls-1" d="M6.85,13c0,.47,0,1,0,1.42a.76.76,0,0,1-.77.69q-1.32,0-2.64,0a.79.79,0,0,1-.79-.85V11.73a.81.81,0,0,1,.83-.88q1.29,0,2.58,0a.72.72,0,0,1,.79.83V13Z"/><path class="cls-1" d="M10.57,20.71H9.28a.78.78,0,0,1-.82-.83V17.33a.78.78,0,0,1,.81-.82q1.29,0,2.58,0a.78.78,0,0,1,.81.82q0,1.29,0,2.58a.77.77,0,0,1-.82.8H10.57Z"/><path class="cls-1" d="M6.85,18.61c0,.46,0,.92,0,1.38a.76.76,0,0,1-.71.71c-.92,0-1.83,0-2.74,0a.78.78,0,0,1-.75-.77c0-.88,0-1.76,0-2.65a.8.8,0,0,1,.83-.78H6.06a.75.75,0,0,1,.79.79v1.31Z"/><path class="cls-1" d="M16.31,20.71c-.38,0-.75,0-1.13,0a.87.87,0,0,1-1-1c0-.78,0-1.56,0-2.33a.79.79,0,0,1,.87-.88h2.43a.82.82,0,0,1,.91.92c0,.79,0,1.58,0,2.36a.81.81,0,0,1-.92.92H16.31Z"/></svg>